<svg xmlns="http://www.w3.org/2000/svg">
  <defs>
    <symbol id="logo32">
      <path fill-rule="evenodd" clip-rule="evenodd" d="M16 32C24.8366 32 32 24.8366 32 16C32 7.16344 24.8366 0 16 0C7.16344 0 0 7.16344 0 16C0 24.8366 7.16344 32 16 32ZM20.3591 6.5C22.7799 6.5 24.6955 8.10031 24.6955 11.0748C24.6955 14.0493 22.7799 15.6496 20.3591 15.6496C17.921 15.6496 16.0228 14.0319 16.0228 11.0748C16.0228 8.10031 17.921 6.5 20.3591 6.5ZM20.3591 13.5449C21.5608 13.5449 22.2052 12.6751 22.2052 11.0748C22.2052 9.47449 21.5608 8.60476 20.3591 8.60476C19.1575 8.60476 18.5131 9.47449 18.5131 11.0748C18.5131 12.6751 19.1575 13.5449 20.3591 13.5449ZM15.2429 15.5279H8.14047V6.62176H10.5612V13.5796H15.2429V15.5279ZM13.0754 19.4119H15.5222C15.335 17.6245 13.711 16.3504 11.6038 16.3504C9.20051 16.3504 7.25 18.0029 7.25 20.9426C7.25 23.7605 9.01765 25.5 11.6212 25.5C13.9549 25.5 15.6267 24.0736 15.6267 21.6384V20.4034H11.6735V22.1254H13.2931C13.2713 22.8995 12.7227 23.3952 11.6386 23.3952C10.3847 23.3952 9.74038 22.4733 9.74038 20.9078C9.74038 19.364 10.437 18.4551 11.6561 18.4551C12.4136 18.4551 12.9274 18.803 13.0754 19.4119ZM20.2886 16.3504C22.7093 16.3504 24.625 17.9507 24.625 20.9252C24.625 23.8997 22.7093 25.5 20.2886 25.5C17.8505 25.5 15.9522 23.8823 15.9522 20.9252C15.9522 17.9507 17.8505 16.3504 20.2886 16.3504ZM20.2886 23.3952C21.4903 23.3952 22.1346 22.5255 22.1346 20.9252C22.1346 19.3249 21.4903 18.4551 20.2886 18.4551C19.087 18.4551 18.4426 19.3249 18.4426 20.9252C18.4426 22.5255 19.087 23.3952 20.2886 23.3952Z" />
    </symbol>
    <symbol id="logo48">
      <path fill-rule="evenodd" clip-rule="evenodd" d="M24 48C37.2548 48 48 37.2548 48 24C48 10.7452 37.2548 0 24 0C10.7452 0 0 10.7452 0 24C0 37.2548 10.7452 48 24 48ZM30.5387 9.75C34.1698 9.75 37.0433 12.1505 37.0433 16.6122C37.0433 21.074 34.1698 23.4744 30.5387 23.4744C26.8815 23.4744 24.0341 21.0479 24.0341 16.6122C24.0341 12.1505 26.8815 9.75 30.5387 9.75ZM30.5387 20.3173C32.3412 20.3173 33.3077 19.0127 33.3077 16.6122C33.3077 14.2117 32.3412 12.9071 30.5387 12.9071C28.7362 12.9071 27.7697 14.2117 27.7697 16.6122C27.7697 19.0127 28.7362 20.3173 30.5387 20.3173ZM22.8644 23.2918H12.2107V9.93264H15.8418V20.3695H22.8644V23.2918ZM19.6131 29.1178H23.2833C23.0025 26.4368 20.5666 24.5256 17.4057 24.5256C13.8008 24.5256 10.875 27.0043 10.875 31.4139C10.875 35.6408 13.5265 38.25 17.4318 38.25C20.9323 38.25 23.4401 36.1105 23.4401 32.4576V30.605H17.5102V33.1881H19.9396C19.907 34.3492 19.0841 35.0929 17.458 35.0929C15.5771 35.0929 14.6106 33.71 14.6106 31.3617C14.6106 29.046 15.6555 27.6827 17.4841 27.6827C18.6204 27.6827 19.391 28.2046 19.6131 29.1178ZM30.4329 24.5256C34.064 24.5256 36.9375 26.926 36.9375 31.3878C36.9375 35.8495 34.064 38.25 30.4329 38.25C26.7757 38.25 23.9283 35.8234 23.9283 31.3878C23.9283 26.926 26.7757 24.5256 30.4329 24.5256ZM30.4329 35.0929C32.2354 35.0929 33.2019 33.7883 33.2019 31.3878C33.2019 28.9873 32.2354 27.6827 30.4329 27.6827C28.6304 27.6827 27.6639 28.9873 27.6639 31.3878C27.6639 33.7883 28.6304 35.0929 30.4329 35.0929Z" />
    </symbol>
    <symbol id="logo96">
      <path fill-rule="evenodd" clip-rule="evenodd" d="M48 96C74.5097 96 96 74.5097 96 48C96 21.4903 74.5097 0 48 0C21.4903 0 0 21.4903 0 48C0 74.5097 21.4903 96 48 96ZM61.0774 19.5C68.3396 19.5 74.0866 24.3009 74.0866 33.2244C74.0866 42.1479 68.3396 46.9488 61.0774 46.9488C53.763 46.9488 48.0683 42.0957 48.0683 33.2244C48.0683 24.3009 53.763 19.5 61.0774 19.5ZM61.0774 40.6346C64.6824 40.6346 66.6155 38.0254 66.6155 33.2244C66.6155 28.4235 64.6824 25.8143 61.0774 25.8143C57.4725 25.8143 55.5394 28.4235 55.5394 33.2244C55.5394 38.0254 57.4725 40.6346 61.0774 40.6346ZM45.7287 46.5836H24.4214V19.8653H31.6836V40.7389H45.7287V46.5836ZM39.2262 58.2356H46.5667C46.0051 52.8736 41.1331 49.0512 34.8114 49.0512C27.6015 49.0512 21.75 54.0086 21.75 62.8278C21.75 71.2816 27.0529 76.5 34.8637 76.5C41.8646 76.5 46.8802 72.2209 46.8802 64.9151V61.2101H35.0204V66.3763H39.8792C39.8139 68.6985 38.1682 70.1857 34.9159 70.1857C31.1542 70.1857 29.2211 67.42 29.2211 62.7234C29.2211 58.092 31.311 55.3654 34.9682 55.3654C37.2408 55.3654 38.7821 56.4091 39.2262 58.2356ZM60.8658 49.0512C68.128 49.0512 73.875 53.8521 73.875 62.7756C73.875 71.6991 68.128 76.5 60.8658 76.5C53.5514 76.5 47.8567 71.6469 47.8567 62.7756C47.8567 53.8521 53.5514 49.0512 60.8658 49.0512ZM60.8658 70.1857C64.4708 70.1857 66.4039 67.5765 66.4039 62.7756C66.4039 57.9746 64.4708 55.3654 60.8658 55.3654C57.2609 55.3654 55.3278 57.9746 55.3278 62.7756C55.3278 67.5765 57.2609 70.1857 60.8658 70.1857Z" />
    </symbol>
    <symbol id="eth32">
      <path d="M16.3687 21.5006V22.4217L16.3689 27.9482L16.3667 28.0002L23.7376 16.8953L16.3687 21.5006Z" fill="#C5AEF3"/>
      <path d="M22.8904 17.7195L16.6189 27.1681L16.6187 22.4217V22.4217V21.6392L22.8904 17.7195Z" stroke="black" stroke-opacity="0.1" stroke-width="0.5"/>
      <path d="M16.3664 28.0001L16.3686 21.5006L9 16.8953L16.3664 28.0001Z" fill="#F3CFC2"/>
      <path d="M9.84653 17.7192L16.1186 21.6392L16.1167 27.1714L9.84653 17.7192Z" stroke="black" stroke-opacity="0.1" stroke-width="0.5"/>
      <path d="M16.3667 4L16.3689 4.53308L16.369 12.8386L23.7376 15.974L16.3667 4Z" fill="#B7F9F6"/>
      <path d="M16.619 4.88669L23.1132 15.4366L16.619 12.6733L16.619 4.88669Z" stroke="black" stroke-opacity="0.1" stroke-width="0.5"/>
      <path d="M16.3655 20.5769L23.7368 15.974L16.3655 12.8745V20.5769Z" fill="#CFB9F8"/>
      <path d="M16.6155 13.2508L23.1952 16.0175L16.6155 20.1261V13.2508Z" stroke="black" stroke-opacity="0.1" stroke-width="0.5"/>
      <path d="M16.3664 4L9 15.974L16.3664 12.8683V4Z" fill="#F3CFC2"/>
      <path d="M16.1164 12.7024L9.62167 15.4406L16.1164 4.88349V12.7024Z" stroke="black" stroke-opacity="0.1" stroke-width="0.5"/>
      <path d="M9 15.974L16.3663 20.5769V12.8745L9 15.974Z" fill="#87A9F0"/>
      <path d="M16.1163 13.2509V20.1259L9.54132 16.0175L16.1163 13.2509Z" stroke="black" stroke-opacity="0.1" stroke-width="0.5"/>
    </symbol>
    <symbol id="eth48">
      <path d="M24.2806 33.1673V34.7025L24.2811 43.9132L24.2773 43.9999L36.5621 25.4917L24.2806 33.1673Z" fill="#C5AEF3"/>
      <path d="M35.715 26.316L24.5311 43.1656L24.5306 34.7025V33.3059L35.715 26.316Z" stroke="black" stroke-opacity="0.1" stroke-width="0.5"/>
      <path d="M24.2773 43.9998L24.281 33.1673L12 25.4917L24.2773 43.9998Z" fill="#F3CFC2"/>
      <path d="M12.8465 26.3156L24.031 33.3059L24.0276 43.1711L12.8465 26.3156Z" stroke="black" stroke-opacity="0.1" stroke-width="0.5"/>
      <path d="M24.2773 4L24.2811 4.88847L24.2812 18.731L36.5621 23.9567L24.2773 4Z" fill="#B7F9F6"/>
      <path d="M24.5311 4.88912L35.9378 23.4193L24.5312 18.5657L24.5311 4.88912Z" stroke="black" stroke-opacity="0.1" stroke-width="0.5"/>
      <path d="M24.2761 31.6281L36.5616 23.9567L24.2761 18.7908V31.6281Z" fill="#CFB9F8"/>
      <path d="M24.5261 19.1671L36.02 24.0001L24.5261 31.1773V19.1671Z" stroke="black" stroke-opacity="0.1" stroke-width="0.5"/>
      <path d="M24.2773 4L12 23.9567L24.2773 18.7805V4Z" fill="#F3CFC2"/>
      <path d="M24.0273 18.6146L12.6217 23.4233L24.0273 4.88349V18.6146Z" stroke="black" stroke-opacity="0.1" stroke-width="0.5"/>
      <path d="M12 23.9567L24.2771 31.6281V18.7908L12 23.9567Z" fill="#87A9F0"/>
      <path d="M24.0271 19.1672V31.1771L12.5413 24.0001L24.0271 19.1672Z" stroke="black" stroke-opacity="0.1" stroke-width="0.5"/>
    </symbol>
    <symbol id="eth96">
      <path d="M47.5615 66.3349V69.4052L47.5624 87.8267L47.5549 88L72.1245 50.9836L47.5615 66.3349Z" fill="#C5AEF3"/>
      <path d="M71.2773 51.8079L47.8124 87.1601L47.8115 69.4052V66.4735L71.2773 51.8079Z" stroke="black" stroke-opacity="0.1" stroke-width="0.5"/>
      <path d="M47.5546 87.9999L47.5621 66.3349L23 50.9836L47.5546 87.9999Z" fill="#F3CFC2"/>
      <path d="M23.8465 51.8075L47.312 66.4735L47.3049 87.1712L23.8465 51.8075Z" stroke="black" stroke-opacity="0.1" stroke-width="0.5"/>
      <path d="M47.5549 8L47.5624 9.77694L47.5627 37.4621L72.1245 47.9133L47.5549 8Z" fill="#B7F9F6"/>
      <path d="M47.8087 8.88913L71.5001 47.376L47.8127 37.2968L47.8124 9.77694L47.8124 9.77589L47.8087 8.88913Z" stroke="black" stroke-opacity="0.1" stroke-width="0.5"/>
      <path d="M47.5525 63.2562L72.1235 47.9133L47.5525 37.5815V63.2562Z" fill="#CFB9F8"/>
      <path d="M47.8025 37.9579L71.5819 47.9568L47.8025 62.8054V37.9579Z" stroke="black" stroke-opacity="0.1" stroke-width="0.5"/>
      <path d="M47.5546 8L23 47.9133L47.5546 37.5611V8Z" fill="#F3CFC2"/>
      <path d="M47.3046 37.3952L23.6217 47.3799L47.3046 8.88349V37.3952Z" stroke="black" stroke-opacity="0.1" stroke-width="0.5"/>
      <path d="M23 47.9133L47.5543 63.2562V37.5815L23 47.9133Z" fill="#87A9F0"/>
      <path d="M47.3043 37.958V62.8052L23.5413 47.9568L47.3043 37.958Z" stroke="black" stroke-opacity="0.1" stroke-width="0.5"/>
    </symbol>
    <symbol id="btc32">
      <path d="M27.6383 18.9029C26.0356 25.3315 19.5244 29.2438 13.095 27.6407C6.66833 26.0381 2.75599 19.5265 4.35938 13.0984C5.96137 6.66903 12.4725 2.75639 18.8999 4.35908C25.3289 5.96177 29.241 12.474 27.6381 18.903L27.6382 18.9029H27.6383Z" fill="#F7931A"/>
      <path d="M21.2871 14.2903C21.526 12.6934 20.3102 11.835 18.6477 11.2623L19.187 9.09914L17.8702 8.77103L17.3452 10.8773C16.999 10.7909 16.6435 10.7096 16.2901 10.6289L16.819 8.50878L15.503 8.18066L14.9634 10.3432C14.6769 10.2779 14.3955 10.2135 14.1226 10.1455L14.1241 10.1387L12.3082 9.68528L11.9579 11.0917C11.9579 11.0917 12.9349 11.3157 12.9143 11.3294C13.4475 11.4625 13.5439 11.8155 13.5279 12.0953L12.9136 14.5597C12.9503 14.569 12.9979 14.5825 13.0505 14.6036C13.0065 14.5927 12.9598 14.5808 12.9113 14.5692L12.0502 18.0214C11.985 18.1834 11.8196 18.4266 11.4468 18.3342C11.46 18.3534 10.4897 18.0954 10.4897 18.0954L9.83594 19.6027L11.5495 20.0299C11.8683 20.1098 12.1807 20.1935 12.4884 20.2721L11.9435 22.4601L13.2587 22.7883L13.7984 20.6235C14.1577 20.721 14.5064 20.811 14.8478 20.8958L14.31 23.0504L15.6268 23.3785L16.1717 21.1946C18.4171 21.6196 20.1055 21.4482 20.8161 19.4172C21.3888 17.7821 20.7876 16.8389 19.6063 16.2238C20.4667 16.0254 21.1148 15.4595 21.2876 14.2905L21.2872 14.2902L21.2871 14.2903ZM18.2786 18.5091C17.8716 20.1443 15.1185 19.2604 14.2258 19.0387L14.9489 16.14C15.8415 16.3628 18.7039 16.8038 18.2786 18.5091H18.2786ZM18.6858 14.2666C18.3146 15.754 16.0231 14.9984 15.2798 14.8131L15.9353 12.1841C16.6787 12.3694 19.0725 12.7152 18.6859 14.2666H18.6858Z" fill="white"/>
    </symbol>
    <symbol id="btc48">
      <path d="M43.3971 28.8381C40.726 39.5525 29.8741 46.0731 19.1584 43.4012C8.44722 40.7301 1.92665 29.8775 4.59897 19.1639C7.26894 8.44838 18.1209 1.92732 28.8332 4.59847C39.5481 7.26961 46.0683 18.1234 43.3968 28.8383L43.397 28.8381H43.3971Z" fill="#F7931A"/>
      <path d="M32.8119 21.1506C33.21 18.489 31.1836 17.0583 28.4128 16.1039L29.3117 12.4986L27.117 11.9517L26.242 15.4621C25.665 15.3182 25.0725 15.1826 24.4836 15.0482L25.365 11.5146L23.1717 10.9678L22.2723 14.5719C21.7948 14.4632 21.3259 14.3558 20.8709 14.2426L20.8735 14.2312L17.847 13.4755L17.2632 15.8195C17.2632 15.8195 18.8914 16.1928 18.8571 16.2157C19.7458 16.4375 19.9065 17.0258 19.8799 17.4922L18.8559 21.5995C18.9171 21.615 18.9965 21.6375 19.0841 21.6727C19.0109 21.6545 18.933 21.6347 18.8521 21.6153L17.4169 27.3691C17.3083 27.6391 17.0326 28.0443 16.4113 27.8904C16.4333 27.9223 14.8162 27.4923 14.8162 27.4923L13.7266 30.0045L16.5826 30.7165C17.1139 30.8497 17.6345 30.9891 18.1473 31.1202L17.2391 34.7669L19.4312 35.3138L20.3306 31.7058C20.9295 31.8684 21.5107 32.0183 22.0796 32.1597L21.1833 35.7507L23.378 36.2975L24.2861 32.6577C28.0285 33.3659 30.8425 33.0804 32.0269 29.6954C32.9813 26.9701 31.9794 25.3982 30.0105 24.3731C31.4445 24.0423 32.5247 23.0992 32.8127 21.1509L32.812 21.1504L32.8119 21.1506ZM27.7976 28.1819C27.1193 30.9072 22.5308 29.434 21.0431 29.0646L22.2482 24.2334C23.7358 24.6047 28.5064 25.3397 27.7977 28.1819H27.7976ZM28.4763 21.1111C27.8576 23.59 24.0385 22.3306 22.7996 22.0218L23.8922 17.6402C25.1311 17.949 29.1208 18.5254 28.4765 21.1111H28.4763Z" fill="white"/>
    </symbol>
    <symbol id="btc96">
      <path d="M86.7943 57.6762C81.452 79.105 59.7481 92.1461 38.3168 86.8025C16.8944 81.4602 3.85331 59.7549 9.19794 38.3279C14.5379 16.8968 36.2418 3.85465 57.6665 9.19694C79.0962 14.5392 92.1366 36.2468 86.7937 57.6766L86.7941 57.6762H86.7943Z" fill="#F7931A"/>
      <path d="M65.6238 42.3011C66.4199 36.978 62.3673 34.1166 56.8255 32.2078L58.6233 24.9971L54.234 23.9034L52.4839 30.9242C51.33 30.6364 50.145 30.3652 48.9672 30.0964L50.7299 23.0293L46.3433 21.9355L44.5446 29.1438C43.5897 28.9264 42.6518 28.7116 41.7419 28.4851L41.7469 28.4625L35.6939 26.9509L34.5263 31.639C34.5263 31.639 37.7828 32.3855 37.7142 32.4315C39.4917 32.8751 39.8131 34.0517 39.7597 34.9843L37.7119 43.1989C37.8343 43.23 37.993 43.275 38.1682 43.3454C38.0218 43.309 37.8659 43.2693 37.7042 43.2306L34.8339 54.7381C34.6166 55.2781 34.0653 56.0885 32.8226 55.7808C32.8666 55.8445 29.6324 54.9847 29.6324 54.9847L27.4531 60.009L33.1651 61.433C34.2278 61.6995 35.2691 61.9783 36.2946 62.2405L34.4782 69.5338L38.8625 70.6275L40.6612 63.4116C41.859 63.7368 43.0213 64.0367 44.1592 64.3194L42.3665 71.5013L46.7561 72.595L48.5722 65.3154C56.057 66.7319 61.6849 66.1608 64.0538 59.3908C65.9626 53.9402 63.9588 50.7963 60.0211 48.7461C62.8891 48.0847 65.0494 46.1983 65.6253 42.3017L65.624 42.3007L65.6238 42.3011ZM55.5952 56.3638C54.2387 61.8144 45.0615 58.868 42.0862 58.1291L44.4965 48.4667C47.4717 49.2095 57.0129 50.6794 55.5954 56.3638H55.5952ZM56.9526 42.2221C55.7152 47.18 48.077 44.6612 45.5992 44.0436L47.7845 35.2803C50.2623 35.898 58.2417 37.0507 56.953 42.2221H56.9526Z" fill="white"/>
    </symbol>
    <symbol id="usdt32">
      <path fill-rule="evenodd" clip-rule="evenodd" d="M7.0512 5.11787L2.02068 15.6845C2.00154 15.7238 1.99547 15.7682 2.00337 15.8112C2.01127 15.8542 2.03271 15.8935 2.06457 15.9235L15.6508 28.9423C15.6894 28.9793 15.7408 29 15.7943 29C15.8477 29 15.8991 28.9793 15.9377 28.9423L29.5239 15.9243C29.5558 15.8943 29.5772 15.855 29.5851 15.812C29.593 15.769 29.587 15.7246 29.5678 15.6853L24.5373 5.11869C24.5211 5.0832 24.495 5.05314 24.4621 5.03209C24.4292 5.01105 24.391 4.99991 24.352 5.00002H7.23815C7.19894 4.99953 7.16042 5.0104 7.12725 5.03131C7.09408 5.05222 7.06767 5.08229 7.0512 5.11787Z" fill="#50AF95"/>
      <path fill-rule="evenodd" clip-rule="evenodd" d="M17.5395 16.7694C17.4419 16.7767 16.938 16.8068 15.8139 16.8068C14.9198 16.8068 14.285 16.78 14.0622 16.7694C10.607 16.6174 8.0279 16.0159 8.0279 15.2958C8.0279 14.5756 10.607 13.9749 14.0622 13.8205V16.1703C14.2882 16.1866 14.9352 16.2248 15.8293 16.2248C16.9022 16.2248 17.4395 16.1801 17.5362 16.1712V13.8221C20.9842 13.9757 23.5576 14.5772 23.5576 15.2958C23.5576 16.0143 20.985 16.6158 17.5362 16.7686L17.5395 16.7694ZM17.5395 13.5791V11.4763H22.3513V8.26978H9.25037V11.4763H14.0614V13.5783C10.151 13.7579 7.21021 14.5325 7.21021 15.4608C7.21021 16.389 10.151 17.1628 14.0614 17.3432V24.0815H17.5387V17.3408C21.4402 17.1612 24.3761 16.3874 24.3761 15.4599C24.3761 14.5325 21.4426 13.7587 17.5387 13.5783L17.5395 13.5791Z" fill="white"/>
    </symbol>
    <symbol id="usdt48">
      <path fill-rule="evenodd" clip-rule="evenodd" d="M10.5768 7.67681L3.03102 23.5267C3.00231 23.5857 2.99321 23.6523 3.00506 23.7168C3.0169 23.7813 3.04907 23.8403 3.09686 23.8852L23.4762 43.4135C23.5341 43.469 23.6112 43.5 23.6914 43.5C23.7716 43.5 23.8487 43.469 23.9066 43.4135L44.2859 23.8864C44.3337 23.8415 44.3659 23.7825 44.3777 23.718C44.3896 23.6535 44.3805 23.5869 44.3517 23.5279L36.806 7.67803C36.7816 7.6248 36.7425 7.57971 36.6932 7.54814C36.6439 7.51657 36.5865 7.49987 36.528 7.50002H10.8572C10.7984 7.49929 10.7406 7.51559 10.6909 7.54696C10.6411 7.57833 10.6015 7.62343 10.5768 7.67681Z" fill="#50AF95"/>
      <path fill-rule="evenodd" clip-rule="evenodd" d="M26.3091 25.1542C26.1628 25.1652 25.4069 25.2103 23.7207 25.2103C22.3795 25.2103 21.4273 25.1701 21.0932 25.1542C15.9103 24.9262 12.0417 24.024 12.0417 22.9438C12.0417 21.8635 15.9103 20.9625 21.0932 20.7309V24.2556C21.4322 24.28 22.4027 24.3373 23.7438 24.3373C25.3532 24.3373 26.1591 24.2703 26.3042 24.2569V20.7333C31.4762 20.9637 35.3362 21.866 35.3362 22.9438C35.3362 24.0216 31.4774 24.9238 26.3042 25.153L26.3091 25.1542ZM26.3091 20.3688V17.2146H33.5269V12.4048H13.8754V17.2146H21.092V20.3675C15.2263 20.637 10.8152 21.7989 10.8152 23.1913C10.8152 24.5836 15.2263 25.7443 21.092 26.015V36.1224H26.3079V26.0113C32.1601 25.7419 36.564 24.5812 36.564 23.19C36.564 21.7989 32.1638 20.6382 26.3079 20.3675L26.3091 20.3688Z" fill="white"/>
    </symbol>
    <symbol id="usdt96">
      <path fill-rule="evenodd" clip-rule="evenodd" d="M21.1536 15.3536L6.06204 47.0535C6.00462 47.1714 5.98642 47.3045 6.01011 47.4335C6.0338 47.5625 6.09814 47.6806 6.19372 47.7704L46.9524 86.827C47.0682 86.938 47.2224 87 47.3828 87C47.5432 87 47.6974 86.938 47.8132 86.827L88.5718 47.7728C88.6674 47.683 88.7317 47.565 88.7554 47.436C88.7791 47.307 88.7609 47.1738 88.7035 47.0559L73.6119 15.3561C73.5632 15.2496 73.4849 15.1594 73.3863 15.0963C73.2877 15.0331 73.173 14.9997 73.056 15H21.7144C21.5968 14.9986 21.4813 15.0312 21.3818 15.0939C21.2822 15.1567 21.203 15.2469 21.1536 15.3536Z" fill="#50AF95"/>
      <path fill-rule="evenodd" clip-rule="evenodd" d="M52.6182 50.3084C52.3256 50.3304 50.8137 50.4206 47.4414 50.4206C44.7591 50.4206 42.8546 50.3401 42.1865 50.3084C31.8207 49.8524 24.0835 48.048 24.0835 45.8875C24.0835 43.7271 31.8207 41.925 42.1865 41.4617V48.5113C42.8644 48.5601 44.8054 48.6747 47.4877 48.6747C50.7064 48.6747 52.3182 48.5406 52.6084 48.5137V41.4666C62.9523 41.9275 70.6725 43.7319 70.6725 45.8875C70.6725 48.0431 62.9548 49.8476 52.6084 50.306L52.6182 50.3084ZM52.6182 40.7375V34.4293H67.0538V24.8096H27.7509V34.4293H42.1841V40.7351C30.4527 41.274 21.6304 43.5978 21.6304 46.3825C21.6304 49.1672 30.4527 51.4886 42.1841 52.03V72.2447H52.6157V52.0227C64.3203 51.4838 73.128 49.1624 73.128 46.3801C73.128 43.5978 64.3276 41.2764 52.6157 40.7351L52.6182 40.7375Z" fill="white"/>
    </symbol>
  </defs>
</svg>