<svg xmlns="http://www.w3.org/2000/svg">
  <defs>
    <symbol id="receive32">
      <path fill-rule="evenodd" clip-rule="evenodd" d="M16 22C19.3137 22 22 20.6569 22 19C22 17.3431 19.3137 16 16 16C12.6863 16 10 17.3431 10 19C10 20.6569 12.6863 22 16 22ZM10 20.5V22C10 23.6569 12.6863 25 16 25C19.3137 25 22 23.6569 22 22V20.5C22 22.1569 19.3137 23.5 16 23.5C12.6863 23.5 10 22.1569 10 20.5ZM10 23.5V25C10 26.6569 12.6863 28 16 28C19.3137 28 22 26.6569 22 25V23.5C22 25.1569 19.3137 26.5 16 26.5C12.6863 26.5 10 25.1569 10 23.5Z"/>
      <path d="M20.7071 8.70711C21.0976 8.31658 21.0976 7.68342 20.7071 7.29289C20.3166 6.90237 19.6834 6.90237 19.2929 7.29289L17 9.58579L17 3C17 2.44772 16.5523 2 16 2C15.4477 2 15 2.44772 15 3L15 9.58579L12.7071 7.29289C12.3166 6.90237 11.6834 6.90237 11.2929 7.29289C10.9024 7.68342 10.9024 8.31658 11.2929 8.70711L16 13.4142L20.7071 8.70711Z"/>
    </symbol>
    <symbol id="send32">
      <path fill-rule="evenodd" clip-rule="evenodd" d="M16 24C19.3137 24 22 22.6569 22 21C22 19.3431 19.3137 18 16 18C12.6863 18 10 19.3431 10 21C10 22.6569 12.6863 24 16 24ZM10 24V22.5C10 24.1569 12.6863 25.5 16 25.5C19.3137 25.5 22 24.1569 22 22.5V24C22 25.6569 19.3137 27 16 27C12.6863 27 10 25.6569 10 24Z"/>
      <path d="M13.3787 5.67147C12.8264 5.67147 12.3787 6.11919 12.3787 6.67147C12.3787 7.22376 12.8264 7.67147 13.3787 7.67147H16.6213L11.9645 12.3283C11.5739 12.7189 11.5739 13.352 11.9645 13.7425C12.355 14.1331 12.9882 14.1331 13.3787 13.7425L18.0355 9.08569L18.0355 12.3283C18.0355 12.8806 18.4832 13.3283 19.0355 13.3283C19.5878 13.3283 20.0355 12.8806 20.0355 12.3283L20.0355 5.67147L13.3787 5.67147Z"/>
    </symbol>
    <symbol id="backArrow16">
      <path d="M9 4L5 8L9 12" stroke-width="1.5" stroke-linecap="round"/>
      <path d="M5 7.25H12.25C12.6642 7.25 13 7.58579 13 8C13 8.41421 12.6642 8.75 12.25 8.75H5V7.25Z"/>
    </symbol>
    <symbol id="backArrow24">
      <path d="M12 7L7 12L12 17" stroke-width="2" stroke-linecap="round"/>
      <path d="M8 11H17C17.5523 11 18 11.4477 18 12C18 12.5523 17.5523 13 17 13H8V11Z"/>
    </symbol>
    <symbol id="backArrow32">
      <path d="M17.707 8.70711C18.0975 8.31658 18.0975 7.68342 17.707 7.29289C17.3165 6.90237 16.6833 6.90237 16.2928 7.29289L7.58569 16L16.2928 24.7071C16.6833 25.0976 17.3165 25.0976 17.707 24.7071C18.0975 24.3166 18.0975 23.6834 17.707 23.2929L11.4141 17H24C24.5523 17 25 16.5523 25 16C25 15.4477 24.5523 15 24 15H11.4141L17.707 8.70711Z" />
    </symbol>
    <symbol id="collapse32">
      <path fill-rule="evenodd" clip-rule="evenodd" d="M9 10L23 10V8L9 8V10ZM20.7071 16.7071C20.3166 17.0976 19.6834 17.0976 19.2929 16.7071L17 14.4142L17 24H15L15 14.4142L12.7071 16.7071C12.3166 17.0976 11.6834 17.0976 11.2929 16.7071C10.9024 16.3166 10.9024 15.6834 11.2929 15.2929L15.2929 11.2929L16 10.5858L16.7071 11.2929L20.7071 15.2929C21.0976 15.6834 21.0976 16.3166 20.7071 16.7071Z" />
    </symbol>
    <symbol id="placeholder16">
      <circle cx="8" cy="8" r="5.5" />
      <path d="M8 4L9.08036 6.91964L12 8L9.08036 9.08036L8 12L6.91964 9.08036L4 8L6.91964 6.91964L8 4Z" />
    </symbol>
    <symbol id="placeholder24">
      <circle cx="12" cy="12" r="10" />
      <path d="M12 4L14.1607 9.83927L20 12L14.1607 14.1607L12 20L9.83927 14.1607L4 12L9.83927 9.83927L12 4Z" />
    </symbol>
    <symbol id="placeholder32">
      <circle cx="16" cy="16" r="13.5" />
      <path d="M16 6L18.7009 13.2991L26 16L18.7009 18.7009L16 26L13.2991 18.7009L6 16L13.2991 13.2991L16 6Z" />
    </symbol>
    <symbol id="overflow16">
      <circle cx="8" cy="4" r="1" />
      <circle cx="8" cy="8" r="1" />
      <circle cx="8" cy="12" r="1" />
    </symbol>
    <symbol id="overflow24">
      <circle cx="12" cy="6.5" r="1.5" />
      <circle cx="12" cy="12" r="1.5" />
      <circle cx="12" cy="17.5" r="1.5" />
    </symbol>
    <symbol id="overflow32">
      <circle cx="16" cy="10" r="2" />
      <circle cx="16" cy="16" r="2" />
      <circle cx="16" cy="22" r="2" />
    </symbol>
    <symbol id="close16">
      <path d="M4 4L12 12" stroke-width="2" stroke-linecap="round"/>
      <path d="M12 4L4 12" stroke-width="2" stroke-linecap="round"/>
    </symbol>
    <symbol id="close24">
      <path d="M6 6L18 18" stroke-width="2.5" stroke-linecap="round"/>
      <path d="M18 6L6 18" stroke-width="2.5" stroke-linecap="round"/>
    </symbol>
    <symbol id="close32">
      <path d="M8 8L24 24" stroke-width="3" stroke-linecap="round"/>
      <path d="M24 8L8 24" stroke-width="3" stroke-linecap="round"/>
    </symbol>
    <symbol id="checkmark16">
      <path fill-rule="evenodd" clip-rule="evenodd" d="M8 14C11.3137 14 14 11.3137 14 8C14 4.68629 11.3137 2 8 2C4.68629 2 2 4.68629 2 8C2 11.3137 4.68629 14 8 14ZM11.3796 6.3254C11.5593 6.11573 11.5351 5.80008 11.3254 5.62037C11.1157 5.44066 10.8001 5.46494 10.6204 5.6746L7.53706 9.2718L5.8473 7.6403C5.64864 7.44849 5.33211 7.45405 5.1403 7.6527C4.94849 7.85136 4.95405 8.16789 5.1527 8.3597L7.22413 10.3597L7.60579 10.7282L7.95106 10.3254L11.3796 6.3254Z" />
    </symbol> 
    <symbol id="checkmark24">
      <path fill-rule="evenodd" clip-rule="evenodd" d="M12 21C16.9706 21 21 16.9706 21 12C21 7.02944 16.9706 3 12 3C7.02944 3 3 7.02944 3 12C3 16.9706 7.02944 21 12 21ZM16.7491 10.2803C17.042 9.98744 17.042 9.51256 16.7491 9.21967C16.4562 8.92678 15.9813 8.92678 15.6884 9.21967L11.1562 13.7518L9.15533 11.7509C8.86244 11.458 8.38756 11.458 8.09467 11.7509C7.80178 12.0438 7.80178 12.5187 8.09467 12.8116L10.6259 15.3428L11.1562 15.8732L11.6866 15.3428L16.7491 10.2803Z"/>
    </symbol>
    <symbol id="checkmark32">
      <path fill-rule="evenodd" clip-rule="evenodd" d="M16 28C22.6274 28 28 22.6274 28 16C28 9.37258 22.6274 4 16 4C9.37258 4 4 9.37258 4 16C4 22.6274 9.37258 28 16 28ZM22.7071 13.1071C23.0976 12.7166 23.0976 12.0834 22.7071 11.6929C22.3166 11.3024 21.6834 11.3024 21.2929 11.6929L14.8 18.1858L11.9071 15.2929C11.5166 14.9024 10.8834 14.9024 10.4929 15.2929C10.1024 15.6834 10.1024 16.3166 10.4929 16.7071L14.0929 20.3071L14.8 21.0142L15.5071 20.3071L22.7071 13.1071Z" />
    </symbol>
    <symbol id="clock32">
      <path fill-rule="evenodd" clip-rule="evenodd" d="M16 26C21.5228 26 26 21.5228 26 16C26 10.4772 21.5228 6 16 6C10.4772 6 6 10.4772 6 16C6 21.5228 10.4772 26 16 26ZM17 11C17 10.4477 16.5523 10 16 10C15.4477 10 15 10.4477 15 11V16V16.5352L15.4453 16.8321L18.4453 18.8321C18.9048 19.1384 19.5257 19.0142 19.8321 18.5547C20.1384 18.0952 20.0142 17.4743 19.5547 17.1679L17 15.4648V11Z" />
    </symbol>
    <symbol id="delete16">
      <path d="M4 5H12V12C12 13.1046 11.1046 14 10 14H6C4.89543 14 4 13.1046 4 12V5Z" />
      <rect x="3" y="3" width="10" height="1" />
      <rect x="6" y="2" width="4" height="1" />
    </symbol>
    <symbol id="delete24">
      <path d="M7 7H17V17C17 18.1046 16.1046 19 15 19H9C7.89543 19 7 18.1046 7 17V7Z" />
      <rect x="6" y="5" width="12" height="1" />
      <rect x="10" y="4" width="4" height="1" />
    </symbol>
    <symbol id="delete32">
      <path d="M10 10H22V22C22 23.1046 21.1046 24 20 24H12C10.8954 24 10 23.1046 10 22V10Z" />
      <rect x="9" y="8" width="14" height="1" />
      <rect x="13" y="7" width="6" height="1" />
    </symbol>
    <symbol id="edit16">
      <path d="M11.2929 2.70686C11.6834 2.31634 12.3166 2.31634 12.7071 2.70686L13.293 3.29277C13.6835 3.68329 13.6835 4.31646 13.293 4.70698L5.99963 12.0004L3.99951 10.0002L11.2929 2.70686Z" />
      <path d="M3.49976 10.5002L5.49988 12.5004L2.99973 13.0004L3.49976 10.5002Z" />
    </symbol>
    <symbol id="edit24">
      <path d="M15.5978 6.06868C15.9883 5.67815 16.6215 5.67815 17.012 6.06868L17.9313 6.98793C18.3218 7.37846 18.3218 8.01162 17.9313 8.40215L8.66609 17.6673L6.33262 15.3339L15.5978 6.06868Z" />
      <path d="M5.75 15.9169L8.08347 18.2503L5.16663 18.8337L5.75 15.9169Z" />
    </symbol>
    <symbol id="edit32">
      <path d="M20.4345 8.70711C20.825 8.31658 21.4582 8.31658 21.8487 8.70711L23.2629 10.1213C23.6534 10.5118 23.6534 11.145 23.2629 11.5355L12.6563 22.1421L9.82789 19.3137L20.4345 8.70711Z" />
      <path d="M9.12109 20.0208L11.9495 22.8492L8.41399 23.5563L9.12109 20.0208Z" />
    </symbol>
    <symbol id="error16">
      <path fill-rule="evenodd" clip-rule="evenodd" d="M2.84937 11.0622L7.13076 3.52955C7.51412 2.85506 8.48616 2.85506 8.86952 3.52954L13.1509 11.0622C13.5298 11.7289 13.0483 12.5563 12.2815 12.5563H3.71876C2.95196 12.5563 2.47047 11.7289 2.84937 11.0622ZM7.50014 11V7.5H8.50014V11H7.50014ZM8.00014 6.75C8.41435 6.75 8.75014 6.41421 8.75014 6C8.75014 5.58579 8.41435 5.25 8.00014 5.25C7.58592 5.25 7.25014 5.58579 7.25014 6C7.25014 6.41421 7.58592 6.75 8.00014 6.75Z" />
    </symbol>
    <symbol id="error24">
      <path fill-rule="evenodd" clip-rule="evenodd" d="M10.7202 4.09441L2.39479 17.7178C1.78397 18.7173 2.50332 20 3.67472 20H20.3255C21.4969 20 22.2163 18.7173 21.6055 17.7178L13.2801 4.09441C12.6952 3.13731 11.3051 3.13731 10.7202 4.09441ZM13.2656 9.01562C13.2656 9.71461 12.699 10.2812 12 10.2812C11.301 10.2812 10.7344 9.71461 10.7344 9.01562C10.7344 8.31664 11.301 7.75 12 7.75C12.699 7.75 13.2656 8.31664 13.2656 9.01562ZM11.1562 17.0312V11.9688H12.8438V17.0312H11.1562Z" />
    </symbol>
    <symbol id="error32">
      <path fill-rule="evenodd" clip-rule="evenodd" d="M14.7276 5.0352L2.43401 24.705C1.80959 25.7041 2.52786 27 3.70601 27H28.2933C29.4714 27 30.1897 25.7041 29.5653 24.705L17.2716 5.0352C16.6841 4.0952 15.3151 4.0952 14.7276 5.0352ZM17.6872 12.0208C17.6872 12.9528 16.9316 13.7083 15.9997 13.7083C15.0677 13.7083 14.3122 12.9528 14.3122 12.0208C14.3122 11.0888 15.0677 10.3333 15.9997 10.3333C16.9316 10.3333 17.6872 11.0888 17.6872 12.0208ZM14.8747 22.7083V15.9583H17.1247V22.7083H14.8747Z" />
    </symbol>
    <symbol id="information16">
      <path fill-rule="evenodd" clip-rule="evenodd" d="M8 13C10.7614 13 13 10.7614 13 8C13 5.23858 10.7614 3 8 3C5.23858 3 3 5.23858 3 8C3 10.7614 5.23858 13 8 13ZM8.75 6C8.75 6.41421 8.41421 6.75 8 6.75C7.58579 6.75 7.25 6.41421 7.25 6C7.25 5.58579 7.58579 5.25 8 5.25C8.41421 5.25 8.75 5.58579 8.75 6ZM8.5 7.5V11H7.5V7.5H8.5Z" />
    </symbol>
     <symbol id="information24">
      <path fill-rule="evenodd" clip-rule="evenodd" d="M12 21C16.9706 21 21 16.9706 21 12C21 7.02944 16.9706 3 12 3C7.02944 3 3 7.02944 3 12C3 16.9706 7.02944 21 12 21ZM13.2656 8.48438C13.2656 9.18336 12.699 9.75 12 9.75C11.301 9.75 10.7344 9.18336 10.7344 8.48438C10.7344 7.78539 11.301 7.21875 12 7.21875C12.699 7.21875 13.2656 7.78539 13.2656 8.48438ZM11.1562 16.5V11.4375H12.8438V16.5H11.1562Z" />
    </symbol>
    <symbol id="information32">
      <path fill-rule="evenodd" clip-rule="evenodd" d="M16 28C22.6274 28 28 22.6274 28 16C28 9.37258 22.6274 4 16 4C9.37258 4 4 9.37258 4 16C4 22.6274 9.37258 28 16 28ZM17.5 10.3C17.5 11.1284 16.8284 11.8 16 11.8C15.1716 11.8 14.5 11.1284 14.5 10.3C14.5 9.47157 15.1716 8.8 16 8.8C16.8284 8.8 17.5 9.47157 17.5 10.3ZM17.2 13.6V22H14.8V13.6H17.2Z" />
    </symbol>
    <symbol id="logOut32">
      <rect x="9" y="7" width="14" height="18" rx="1" stroke-width="2"/>
      <path fill-rule="evenodd" clip-rule="evenodd" d="M14.2929 19.2929C13.9024 19.6834 13.9024 20.3166 14.2929 20.7071C14.6834 21.0976 15.3166 21.0976 15.7071 20.7071L19.7071 16.7071L20.4142 16L19.7071 15.2929L15.7071 11.2929C15.3166 10.9024 14.6834 10.9024 14.2929 11.2929C13.9024 11.6834 13.9024 12.3166 14.2929 12.7071L16.5858 15H10C9.44772 15 9 15.4477 9 16C9 16.5523 9.44772 17 10 17H16.5858L14.2929 19.2929Z" />
    </symbol>
    <symbol id="menu32">
      <rect x="6" y="9" width="20" height="2" />
      <rect x="6" y="15" width="20" height="2" />
      <rect x="6" y="21" width="20" height="2" />
    </symbol>
    <symbol id="open32">
      <path d="M15 8H10C8.89543 8 8 8.89543 8 10V22C8 23.1046 8.89543 24 10 24H22C23.1046 24 24 23.1046 24 22V17" stroke-width="2" stroke-linecap="round"/>
      <path d="M24.1923 12.4853C24.1923 13.0376 24.64 13.4853 25.1923 13.4853C25.7446 13.4853 26.1923 13.0376 26.1923 12.4853L24.1923 12.4853ZM25.1923 6.82843L26.1923 6.82843L26.1923 5.82843L25.1923 5.82843L25.1923 6.82843ZM19.5355 5.82843C18.9832 5.82843 18.5355 6.27615 18.5355 6.82843C18.5355 7.38072 18.9832 7.82843 19.5355 7.82843L19.5355 5.82843ZM26.1923 12.4853L26.1923 6.82843L24.1923 6.82843L24.1923 12.4853L26.1923 12.4853ZM25.1923 5.82843L19.5355 5.82843L19.5355 7.82843L25.1923 7.82843L25.1923 5.82843Z" />
      <rect x="25.1924" y="8.24268" width="11" height="2" transform="rotate(135 25.1924 8.24268)" />
    </symbol>
    <symbol id="plus32">
      <rect x="15" y="7" width="2" height="18" rx="1" />
      <rect x="7" y="15" width="18" height="2" rx="1" />
    </symbol>
    <symbol id="qrCode32">
      <path d="M12 8H10C8.89543 8 8 8.89543 8 10V12" stroke-width="2" stroke-linecap="round"/>
      <path d="M24 12L24 10C24 8.89543 23.1046 8 22 8L20 8" stroke-width="2" stroke-linecap="round"/>
      <path d="M20 24L22 24C23.1046 24 24 23.1046 24 22L24 20" stroke-width="2" stroke-linecap="round"/>
      <path d="M8 20L8 22C8 23.1046 8.89543 24 10 24L12 24" stroke-width="2" stroke-linecap="round"/>
      <rect x="11.5" y="11.5" width="3" height="3" />
      <rect x="17.5" y="11.5" width="3" height="3"  />
      <rect x="11.5" y="17.5" width="3" height="3" />
      <rect x="19" y="19" width="2" height="2" />
      <rect x="11" y="16" width="2" height="1" />
      <rect x="14" y="16" width="1" height="1" />
      <rect x="16" y="16" width="3" height="1" />
      <rect x="16" y="17" width="2" height="2" />
      <rect x="20" y="16" width="1" height="1" />
      <rect x="19" y="18" width="1" height="1" />
      <rect x="16" y="20" width="2" height="1" />
    </symbol>
    <symbol id="refresh32">
      <path d="M18.0001 9.97046C17.4478 9.97046 17.0001 10.4182 17.0001 10.9705C17.0001 11.5227 17.4478 11.9705 18.0001 11.9705V9.97046ZM22.9706 10.9705L22.9706 11.9705L23.9706 11.9705L23.9706 10.9705L22.9706 10.9705ZM23.9706 5.99999C23.9706 5.44771 23.5229 4.99999 22.9706 4.99999C22.4183 4.99999 21.9706 5.44771 21.9706 5.99999L23.9706 5.99999ZM18.0001 11.9705L22.9706 11.9705L22.9706 9.97046L18.0001 9.97046V11.9705ZM23.9706 10.9705L23.9706 5.99999L21.9706 5.99999L21.9706 10.9705L23.9706 10.9705Z" />
      <path d="M24.5871 18.6948C24.0005 20.5639 22.8201 22.1907 21.225 23.328C19.6299 24.4653 17.7073 25.0511 15.749 24.9965C13.7908 24.9419 11.9038 24.2498 10.3746 23.0253C8.84539 21.8008 7.75748 20.1108 7.27603 18.2119C6.79457 16.3129 6.94586 14.3087 7.70693 12.5036C8.46801 10.6984 9.79729 9.19087 11.493 8.20983C13.1887 7.22878 15.1582 6.82781 17.1024 7.06778C19.0467 7.30774 20.8596 8.17555 22.2659 9.53944" stroke-width="2" stroke-linejoin="round"/>
    </symbol>
    <symbol id="unlock32">
      <path fill-rule="evenodd" clip-rule="evenodd" d="M16 7C17.6569 7 19 8.34315 19 10V14H11C9.89543 14 9 14.8954 9 16V23C9 24.1046 9.89543 25 11 25H21C22.1046 25 23 24.1046 23 23V16C23 14.8954 22.1046 14 21 14V10C21 7.23858 18.7614 5 16 5C13.2386 5 11 7.23858 11 10V12H13V10C13 8.34315 14.3431 7 16 7Z" />
    </symbol>
    <symbol id="unmask32">
      <path d="M16 18C17.1046 18 18 17.1046 18 16C18 14.8954 17.1046 14 16 14C14.8954 14 14 14.8954 14 16C14 17.1046 14.8954 18 16 18Z" />
      <path fill-rule="evenodd" clip-rule="evenodd" d="M26 16C26 17 21.5228 22 16 22C10.4772 22 6 17 6 16C6 15 10.4772 10 16 10C21.5228 10 26 15 26 16ZM20 16C20 18.2091 18.2091 20 16 20C13.7909 20 12 18.2091 12 16C12 13.7909 13.7909 12 16 12C18.2091 12 20 13.7909 20 16Z" />
    </symbol>
  </defs>
</svg>