<svg xmlns="http://www.w3.org/2000/svg">
  <defs>
    <symbol id="contacts32">
      <circle cx="16" cy="14" r="5" />
      <path opacity="0.5" fill-rule="evenodd" clip-rule="evenodd" d="M8.49009 24.0375C10.1011 21.6045 12.863 20 15.9995 20C19.1363 20 21.8983 21.6048 23.5093 24.0381C25.6573 22.0305 27 19.1721 27 16C27 9.92487 22.0751 5 16 5C9.92487 5 5 9.92487 5 16C5 19.1718 6.34242 22.03 8.49009 24.0375ZM15.3819 27.9844C9.04173 27.6627 4 22.4201 4 16C4 9.37258 9.37258 4 16 4C22.6274 4 28 9.37258 28 16C28 19.542 26.4654 22.7256 24.0248 24.9221C24.0249 24.9222 24.0249 24.9223 24.0249 24.9223C21.899 26.8356 19.0856 28 16.0003 28M15.3819 27.9844C15.5866 27.9947 15.7927 28 16 28L15.3819 27.9844Z" />
    </symbol>
    <symbol id="info32">
      <circle opacity="0.25" cx="16" cy="16" r="12" />
      <path d="M15 14H17V23H15V14Z" />
      <circle cx="16" cy="10.5" r="1.5" />
    </symbol>
    <symbol id="logout32">
      <rect opacity="0.25" x="8" y="4" width="16" height="24" rx="2" />
      <path fill-rule="evenodd" clip-rule="evenodd" d="M15.2929 19.2929C14.9024 19.6834 14.9024 20.3166 15.2929 20.7071C15.6834 21.0976 16.3166 21.0976 16.7071 20.7071L20.7071 16.7071L21.4142 16L20.7071 15.2929L16.7071 11.2929C16.3166 10.9024 15.6834 10.9024 15.2929 11.2929C14.9024 11.6834 14.9024 12.3166 15.2929 12.7071L17.5858 15H12C11.4477 15 11 15.4477 11 16C11 16.5523 11.4477 17 12 17H17.5858L15.2929 19.2929Z" />
    </symbol>
    <symbol id="networks32">
      <circle cx="16" cy="16" r="5" />
      <path opacity="0.5" fill-rule="evenodd" clip-rule="evenodd" d="M14 6C14 6.80891 13.6798 7.54305 13.1593 8.08261L16.7155 15.195L22.0069 9.24225C21.3891 8.69275 21 7.89182 21 7C21 5.34315 22.3431 4 24 4C25.6569 4 27 5.34315 27 7C27 8.65685 25.6569 10 24 10C23.5994 10 23.2171 9.92148 22.8677 9.77898L17.0499 16.3241L17.0833 16.5417L24.5465 20.2732C25.0895 19.5031 25.986 19 27 19C28.6569 19 30 20.3431 30 22C30 23.6569 28.6569 25 27 25C25.3431 25 24 23.6569 24 22C24 21.714 24.04 21.4374 24.1147 21.1754L17.2697 17.7529L18.2321 24.0088C19.7805 24.1273 21 25.4213 21 27C21 28.6569 19.6569 30 18 30C16.3431 30 15 28.6569 15 27C15 25.6078 15.9483 24.4371 17.2342 24.0986L16.1736 17.2048L15.5528 16.8944L16 16L12.3419 8.68387C11.9381 8.88616 11.4824 9 11 9C9.34315 9 8 7.65685 8 6C8 4.34315 9.34315 3 11 3C12.6569 3 14 4.34315 14 6ZM8.82446 19.9864L16 16L15.5144 15.1258L8.33394 19.115C7.78396 18.4349 6.94277 18 6 18C4.34315 18 3 19.3431 3 21C3 22.6569 4.34315 24 6 24C7.65685 24 9 22.6569 9 21C9 20.6443 8.93809 20.303 8.82446 19.9864Z" />
    </symbol>
    <symbol id="placeholder32">
      <circle cx="16" cy="16" r="13.5" />
      <path d="M16 6L18.2451 12.9098H25.5106L19.6327 17.1803L21.8779 24.0902L16 19.8197L10.1221 24.0902L12.3673 17.1803L6.48944 12.9098H13.7549L16 6Z" />
    </symbol>
    <symbol id="placeholder48">
      <circle cx="24" cy="24" r="20.5" />
      <path d="M24 9L27.3677 19.3647H38.2658L29.4491 25.7705L32.8168 36.1353L24 29.7295L15.1832 36.1353L18.5509 25.7705L9.73415 19.3647H20.6323L24 9Z" />
    </symbol>
    <symbol id="receive32">
      <path opacity="0.5" fill-rule="evenodd" clip-rule="evenodd" d="M16 22C19.3137 22 22 20.6569 22 19C22 17.3431 19.3137 16 16 16C12.6863 16 10 17.3431 10 19C10 20.6569 12.6863 22 16 22ZM10 20.5V22C10 23.6569 12.6863 25 16 25C19.3137 25 22 23.6569 22 22V20.5C22 22.1569 19.3137 23.5 16 23.5C12.6863 23.5 10 22.1569 10 20.5ZM10 23.5V25C10 26.6569 12.6863 28 16 28C19.3137 28 22 26.6569 22 25V23.5C22 25.1569 19.3137 26.5 16 26.5C12.6863 26.5 10 25.1569 10 23.5Z" />
      <path d="M20.7071 8.70711C21.0976 8.31658 21.0976 7.68342 20.7071 7.29289C20.3166 6.90237 19.6834 6.90237 19.2929 7.29289L17 9.58579L17 3C17 2.44772 16.5523 2 16 2C15.4477 2 15 2.44772 15 3L15 9.58579L12.7071 7.29289C12.3166 6.90237 11.6834 6.90237 11.2929 7.29289C10.9024 7.68342 10.9024 8.31658 11.2929 8.70711L16 13.4142L20.7071 8.70711Z" />
    </symbol>
    <symbol id="send32">
      <g clip-path="url(#clip0_1945_13747)">
      <path d="M5.46822 14.1798L24.4226 7.86164L18.1045 26.816L14.6302 17.9374L14.5505 17.7337L14.3468 17.654L5.46822 14.1798Z"  fill-opacity="0.5" />
      </g>
      <defs>
      <clipPath id="clip0_1945_13747">
      <rect width="32" height="32" fill="white"/>
      </clipPath>
      </defs>
    </symbol>
    <symbol id="stake32">
      <path fill-rule="evenodd" clip-rule="evenodd" d="M8 19C11.3137 19 14 17.6569 14 16C14 14.3431 11.3137 13 8 13C4.68629 13 2 14.3431 2 16C2 17.6569 4.68629 19 8 19ZM2 17.5V19C2 20.6569 4.68629 22 8 22C11.3137 22 14 20.6569 14 19V17.5C14 19.1569 11.3137 20.5 8 20.5C4.68629 20.5 2 19.1569 2 17.5ZM2 20.5V22C2 23.6569 4.68629 25 8 25C11.3137 25 14 23.6569 14 22V20.5C14 22.1569 11.3137 23.5 8 23.5C4.68629 23.5 2 22.1569 2 20.5Z" />
      <path opacity="0.5" fill-rule="evenodd" clip-rule="evenodd" d="M22 13C25.3137 13 28 11.6569 28 10C28 8.34315 25.3137 7 22 7C18.6863 7 16 8.34315 16 10C16 11.6569 18.6863 13 22 13ZM16 11.5V13C16 14.6569 18.6863 16 22 16C25.3137 16 28 14.6569 28 13V11.5C28 13.1569 25.3137 14.5 22 14.5C18.6863 14.5 16 13.1569 16 11.5ZM16 14.5V16C16 17.6569 18.6863 19 22 19C25.3137 19 28 17.6569 28 16V14.5C28 16.1569 25.3137 17.5 22 17.5C18.6863 17.5 16 16.1569 16 14.5ZM16 17.5V19C16 20.6569 18.6863 22 22 22C25.3137 22 28 20.6569 28 19V17.5C28 19.1569 25.3137 20.5 22 20.5C18.6863 20.5 16 19.1569 16 17.5ZM16 22V20.5C16 22.1569 18.6863 23.5 22 23.5C25.3137 23.5 28 22.1569 28 20.5V22C28 23.6569 25.3137 25 22 25C18.6863 25 16 23.6569 16 22Z" />
    </symbol>
    <symbol id="eth32">
      <path opacity="0.5" d="M15.9997 22V23L16 29L15.9976 29.0564L24 17L15.9997 22Z" />
      <path d="M15.9976 29.0564L16 22L8 17L15.9976 29.0564Z" />
      <path opacity="0.5" d="M15.9976 3L16 3.57876L16.0001 12.596L24 16L15.9976 3Z" />
      <path opacity="0.25" d="M15.9971 20.9973L24 16L15.9971 12.6349V20.9973Z" />
      <path d="M15.9976 3L8 16L15.9976 12.6282V3Z" />
      <path opacity="0.5" d="M8 16L15.9975 20.9973V12.6349L8 16Z" />
    </symbol>
    <symbol id="kda32">
      <path d="M27.0836 27.0001H20.5609L14.2502 17.9353L18.0154 14.1667L27.0836 27.0001Z" fill="url(#paint0_linear_1945_14118)" />
      <path d="M19.7024 5H26.167L12.417 19.6667V12.8327L19.7024 5Z" fill="url(#paint1_linear_1945_14118)" />
      <rect x="6.91699" y="5" width="5.5" height="22" fill="url(#paint2_linear_1945_14118)" />
      <linearGradient id="paint0_linear_1945_14118" x1="15.8412" y1="16.2038" x2="24.1257" y2="28.386" gradientUnits="userSpaceOnUse">
      <stop stop-opacity="0.25" />
      <stop offset="1" />
      </linearGradient>
      <linearGradient id="paint1_linear_1945_14118" x1="12.417" y1="15.6189" x2="23.1917" y2="5.05172" gradientUnits="userSpaceOnUse">
      <stop stop-opacity="0.5" />
      <stop offset="0.981281" />
      </linearGradient>
      <linearGradient id="paint2_linear_1945_14118" x1="9.71888" y1="22.4952" x2="9.71888" y2="4.73809" gradientUnits="userSpaceOnUse">
      <stop stop-opacity="0.5" />
      <stop offset="1" />
      </linearGradient>
    </symbol>
    <symbol id="wallets32">
      <path opacity="0.25" d="M29 19C29 20.1046 28.1046 21 27 21L11 21C9.89543 21 9 20.1046 9 19L9 7C9 5.89543 9.89543 5 11 5L27 5C28.1046 5 29 5.89543 29 7L29 19Z" />
      <path opacity="0.5" d="M26 22C26 23.1046 25.1046 24 24 24L8 24C6.89543 24 6 23.1046 6 22L6 10C6 8.89543 6.89543 8 8 8L24 8C25.1046 8 26 8.89543 26 10L26 22Z" />
      <path fill-rule="evenodd" clip-rule="evenodd" d="M5 11C3.89543 11 3 11.8954 3 13V25C3 26.1046 3.89543 27 5 27H21C22.1046 27 23 26.1046 23 25V22H18C17.4477 22 17 21.5523 17 21V17C17 16.4477 17.4477 16 18 16H23V13C23 11.8954 22.1046 11 21 11H5Z" />
      <path d="M18 18C18 17.4477 18.4477 17 19 17H24V21H19C18.4477 21 18 20.5523 18 20V18Z" />
    </symbol>
  </defs>
</svg>