<svg xmlns="http://www.w3.org/2000/svg" xmlns:xlink="http://www.w3.org/1999/xlink"><symbol viewBox="0 0 24 24" id="backarrow24" xmlns="http://www.w3.org/2000/svg"><path fill-rule="evenodd" d="M12.707 6.293a1 1 0 010 1.414L8.414 12l4.293 4.293a1 1 0 01-1.414 1.414L5.586 12l5.707-5.707a1 1 0 011.414 0z" clip-rule="evenodd"/><path d="M8 11h9a1 1 0 010 2H8v-2z"/></symbol><symbol viewBox="0 0 32 32" id="backarrow32" xmlns="http://www.w3.org/2000/svg"><path d="M17.121 8.707a1 1 0 00-1.414-1.414L7 16l8.707 8.707a1 1 0 001.414-1.414L10.828 17h12.586a1 1 0 100-2H10.828l6.293-6.293z"/></symbol><symbol viewBox="0 0 16 16" id="checkmark16first" xmlns="http://www.w3.org/2000/svg"><path d="M13 5l-6 6-3-3"/></symbol><symbol viewBox="0 0 16 16" id="checkmark16second" xmlns="http://www.w3.org/2000/svg"><path fill-rule="evenodd" d="M8 14A6 6 0 108 2a6 6 0 000 12zm3.38-7.675a.5.5 0 10-.76-.65L7.537 9.272 5.847 7.64a.5.5 0 00-.694.72l2.453 2.368 3.774-4.403z" clip-rule="evenodd"/></symbol><symbol viewBox="0 0 24 24" id="checkmark24first" xmlns="http://www.w3.org/2000/svg"><path d="M20 7L10 17l-5-5"/></symbol><symbol viewBox="0 0 24 24" id="checkmark24second" xmlns="http://www.w3.org/2000/svg"><path fill-rule="evenodd" d="M12 21a9 9 0 100-18 9 9 0 000 18zm4.75-10.72a.75.75 0 10-1.062-1.06l-4.532 4.532-2-2.001a.75.75 0 10-1.061 1.06l2.53 2.532.531.53.53-.53 5.063-5.063z" clip-rule="evenodd"/></symbol><symbol viewBox="0 0 32 32" id="checkmark32first" xmlns="http://www.w3.org/2000/svg"><path d="M26.666 9.333L13.333 22.667 6.666 16"/></symbol><symbol viewBox="0 0 32 32" id="checkmark32second" xmlns="http://www.w3.org/2000/svg"><path fill-rule="evenodd" d="M16 28c6.627 0 12-5.373 12-12S22.627 4 16 4 4 9.373 4 16s5.373 12 12 12zm6.707-14.893a1 1 0 00-1.414-1.414L14.8 18.186l-2.893-2.893a1 1 0 00-1.414 1.414l3.6 3.6.707.707.707-.707 7.2-7.2z" clip-rule="evenodd"/></symbol><symbol viewBox="0 0 16 16" id="chevrondown16" xmlns="http://www.w3.org/2000/svg"><path fill-rule="evenodd" d="M3.293 5.793a1 1 0 011.414 0L8 9.086l3.293-3.293a1 1 0 111.414 1.414l-4 4a1 1 0 01-1.414 0l-4-4a1 1 0 010-1.414z" clip-rule="evenodd"/></symbol><symbol viewBox="0 0 24 24" id="chevrondown24" xmlns="http://www.w3.org/2000/svg"><path fill-rule="evenodd" d="M5.116 8.866a1.25 1.25 0 011.768 0L12 13.982l5.116-5.116a1.25 1.25 0 011.768 1.768l-6 6a1.25 1.25 0 01-1.768 0l-6-6a1.25 1.25 0 010-1.768z" clip-rule="evenodd"/></symbol><symbol viewBox="0 0 16 16" id="chevronright16" xmlns="http://www.w3.org/2000/svg"><path fill-rule="evenodd" d="M5.293 3.293a1 1 0 011.414 0l4 4a1 1 0 010 1.414l-4 4a1 1 0 01-1.414-1.414L8.586 8 5.293 4.707a1 1 0 010-1.414z" clip-rule="evenodd"/></symbol><symbol viewBox="0 0 24 24" id="chevronright24" xmlns="http://www.w3.org/2000/svg"><path fill-rule="evenodd" d="M8.366 18.884a1.25 1.25 0 010-1.768L13.482 12 8.366 6.884a1.25 1.25 0 111.768-1.768l6 6a1.25 1.25 0 010 1.768l-6 6a1.25 1.25 0 01-1.768 0z" clip-rule="evenodd"/></symbol><symbol viewBox="0 0 16 16" id="circle16" xmlns="http://www.w3.org/2000/svg"><path d="M15 8a7 7 0 11-7-7"/></symbol><symbol viewBox="0 0 24 24" id="circle24" xmlns="http://www.w3.org/2000/svg"><path d="M22.75 12A10.75 10.75 0 1112 1.25"/></symbol><symbol viewBox="0 0 32 32" id="circle32" xmlns="http://www.w3.org/2000/svg"><path d="M30.5 16A14.5 14.5 0 1116 1.5"/></symbol><symbol viewBox="0 0 32 32" id="clock32" xmlns="http://www.w3.org/2000/svg"><path fill-rule="evenodd" d="M16 26c5.523 0 10-4.477 10-10S21.523 6 16 6 6 10.477 6 16s4.477 10 10 10zm1-15a1 1 0 10-2 0v5.535l3.445 2.297a1 1 0 001.11-1.664L17 15.465V11z" clip-rule="evenodd"/></symbol><symbol fill="none" viewBox="0 0 16 16" id="close16" xmlns="http://www.w3.org/2000/svg"><path d="M4 4l8 8m0-8l-8 8"/></symbol><symbol fill="none" viewBox="0 0 24 24" id="close24" xmlns="http://www.w3.org/2000/svg"><path d="M7 7l10 10m0-10L7 17"/></symbol><symbol fill="none" viewBox="0 0 32 32" id="close32" xmlns="http://www.w3.org/2000/svg"><path d="M8 8l16 16m0-16L8 24"/></symbol><symbol viewBox="0 0 32 32" id="collapse32" xmlns="http://www.w3.org/2000/svg"><path d="M9 10h14V8H9v2zm11.707 6.707a1 1 0 01-1.414 0L17 14.414V24h-2v-9.586l-2.293 2.293a1 1 0 01-1.414-1.414L16 10.586l4.707 4.707a1 1 0 010 1.414z"/></symbol><symbol viewBox="0 0 32 32" id="contacts32" xmlns="http://www.w3.org/2000/svg"><path d="M21 14a5 5 0 11-10 0 5 5 0 0110 0z"/><path fill-rule="evenodd" d="M15.382 27.984C9.042 27.663 4 22.42 4 16 4 9.373 9.373 4 16 4s12 5.373 12 12a11.97 11.97 0 01-3.975 8.922A11.955 11.955 0 0116 28m-7.51-3.962A8.992 8.992 0 0116 20a8.992 8.992 0 017.51 4.038A10.97 10.97 0 0027 16c0-6.075-4.925-11-11-11S5 9.925 5 16a10.97 10.97 0 003.49 8.038zm6.892 3.946c.205.01.411.016.618.016l-.618-.016z" clip-rule="evenodd"/></symbol><symbol viewBox="0 0 16 16" id="delete16" xmlns="http://www.w3.org/2000/svg"><path d="M4 5h8v7a2 2 0 01-2 2H6a2 2 0 01-2-2V5zM3 3h10v1H3V3zm3-1h4v1H6V2z"/></symbol><symbol viewBox="0 0 24 24" id="delete24" xmlns="http://www.w3.org/2000/svg"><path d="M7 7h10v10a2 2 0 01-2 2H9a2 2 0 01-2-2V7zM6 5h12v1H6V5zm4-1h4v1h-4V4z"/></symbol><symbol viewBox="0 0 32 32" id="delete32" xmlns="http://www.w3.org/2000/svg"><path d="M10 10h12v12a2 2 0 01-2 2h-8a2 2 0 01-2-2V10zM9 8h14v1H9V8zm4-1h6v1h-6V7z"/></symbol><symbol viewBox="0 0 16 16" id="edit16" xmlns="http://www.w3.org/2000/svg"><path d="M11.293 2.707a1 1 0 011.414 0l.586.586a1 1 0 010 1.414L6 12l-2-2 7.293-7.293zM3.5 10.5l2 2L3 13l.5-2.5z"/></symbol><symbol viewBox="0 0 24 24" id="edit24" xmlns="http://www.w3.org/2000/svg"><path d="M15.597 6.069a1 1 0 011.414 0l.92.919a1 1 0 010 1.414l-9.266 9.265-2.333-2.333 9.265-9.265zM5.75 15.917l2.333 2.333-2.917.584.583-2.917z"/></symbol><symbol viewBox="0 0 32 32" id="edit32" xmlns="http://www.w3.org/2000/svg"><path d="M20.435 8.707a1 1 0 011.414 0l1.414 1.414a1 1 0 010 1.415L12.656 22.142l-2.828-2.828L20.435 8.707zM9.121 20.02l2.829 2.83-3.536.706.707-3.535z"/></symbol><symbol viewBox="0 0 16 16" id="error16" xmlns="http://www.w3.org/2000/svg"><path fill-rule="evenodd" d="M2.849 11.062L7.13 3.53a1 1 0 011.739 0l4.281 7.532a1 1 0 01-.869 1.494H3.718a1 1 0 01-.87-1.494zM7.499 11V7.5h1V11h-1zM8 6.75a.75.75 0 100-1.5.75.75 0 000 1.5z" clip-rule="evenodd"/></symbol><symbol viewBox="0 0 24 24" id="error24" xmlns="http://www.w3.org/2000/svg"><path fill-rule="evenodd" d="M10.72 4.094L2.394 17.718A1.5 1.5 0 003.674 20h16.651a1.5 1.5 0 001.28-2.282L13.28 4.094a1.5 1.5 0 00-2.56 0zm2.545 4.922a1.266 1.266 0 11-2.531 0 1.266 1.266 0 012.531 0zm-2.11 8.015V11.97h1.688v5.062h-1.687z" clip-rule="evenodd"/></symbol><symbol viewBox="0 0 32 32" id="error32" xmlns="http://www.w3.org/2000/svg"><path fill-rule="evenodd" d="M14.727 5.035L2.434 24.705A1.5 1.5 0 003.706 27h24.587a1.5 1.5 0 001.272-2.295L17.27 5.035a1.5 1.5 0 00-2.544 0zm2.96 6.986a1.688 1.688 0 11-3.375 0 1.688 1.688 0 013.375 0zm-2.813 10.687v-6.75h2.25v6.75h-2.25z" clip-rule="evenodd"/></symbol><symbol viewBox="0 0 24 24" id="hide24" xmlns="http://www.w3.org/2000/svg"><path fill-rule="evenodd" d="M16.743 17.743L20 21l1.414-1.414-2.967-2.968C20.69 14.862 22 12.668 22 12c0-1.167-4-7-10-7-1.541 0-2.95.385-4.194.977L4.414 2.586 3 4l3.027 3.027C3.495 8.83 2 11.287 2 12c0 1.167 4 7 10 7 1.773 0 3.371-.51 4.743-1.257zm.278-2.55c.308-.232.601-.477.878-.73a10.954 10.954 0 001.712-1.978c.126-.19.221-.353.29-.485a5.894 5.894 0 00-.29-.485A10.954 10.954 0 0017.9 9.537C16.373 8.139 14.334 7 12 7a7.54 7.54 0 00-2.671.5l.908.908a4 4 0 015.354 5.355l1.43 1.43zm-2.737.091l.97.97c-.992.46-2.086.746-3.254.746-2.334 0-4.373-1.139-5.899-2.537a10.955 10.955 0 01-1.713-1.978 5.914 5.914 0 01-.29-.485c.07-.132.165-.295.29-.485a11.01 11.01 0 011.713-1.978 11.25 11.25 0 011.364-1.072l1.25 1.25a4 4 0 005.568 5.568zm-10.32-3.58l.005.017-.005-.018zm.005.575l-.005.018.005-.018zm16.067.018l-.005-.018a.193.193 0 01.005.018zm-.005-.576l.005-.018-.005.018z" clip-rule="evenodd"/></symbol><symbol viewBox="0 0 16 16" id="information16" xmlns="http://www.w3.org/2000/svg"><path fill-rule="evenodd" d="M8 13A5 5 0 108 3a5 5 0 000 10zm.75-7a.75.75 0 11-1.5 0 .75.75 0 011.5 0zM8.5 7.5V11h-1V7.5h1z" clip-rule="evenodd"/></symbol><symbol viewBox="0 0 24 24" id="information24" xmlns="http://www.w3.org/2000/svg"><path fill-rule="evenodd" d="M12 21a9 9 0 100-18 9 9 0 000 18zm1.266-12.516a1.266 1.266 0 11-2.532 0 1.266 1.266 0 012.532 0zm-2.11 8.016v-5.063h1.688V16.5h-1.688z" clip-rule="evenodd"/></symbol><symbol viewBox="0 0 32 32" id="information32" xmlns="http://www.w3.org/2000/svg"><path fill-rule="evenodd" d="M16 28c6.627 0 12-5.373 12-12S22.627 4 16 4 4 9.373 4 16s5.373 12 12 12zm1.5-17.7a1.5 1.5 0 11-3 0 1.5 1.5 0 013 0zm-.3 3.3V22h-2.4v-8.4h2.4z" clip-rule="evenodd"/></symbol><symbol viewBox="0 0 24 24" id="lock24" xmlns="http://www.w3.org/2000/svg"><path fill-rule="evenodd" d="M17 11a2 2 0 012 2v6a2 2 0 01-2 2H7a2 2 0 01-2-2v-6a2 2 0 012-2V8a5 5 0 0110 0v3zm-8 0h6V8a3 3 0 10-6 0v3z" clip-rule="evenodd"/></symbol><symbol viewBox="0 0 32 32" id="lock32" xmlns="http://www.w3.org/2000/svg"><path fill-rule="evenodd" d="M10 14v-3a6 6 0 0112 0v3a2 2 0 012 2v8a2 2 0 01-2 2H10a2 2 0 01-2-2v-8a2 2 0 012-2zm9.5-3v3h-7v-3a3.5 3.5 0 117 0z" clip-rule="evenodd"/></symbol><symbol viewBox="0 0 32 32" id="menu32" xmlns="http://www.w3.org/2000/svg"><path d="M6 9h20v2H6V9zm0 6h20v2H6v-2zm0 6h20v2H6v-2z"/></symbol><symbol viewBox="0 0 32 32" id="networks32" xmlns="http://www.w3.org/2000/svg"><path d="M21 16a5 5 0 11-10 0 5 5 0 0110 0z"/><path d="M14 6a2.99 2.99 0 01-.84 2.083l3.555 7.112 5.292-5.953a3 3 0 11.86.537l-5.817 6.545.033.218 7.464 3.731a3 3 0 11-.432.902l-6.845-3.422.962 6.256a3 3 0 11-.998.09l-1.06-6.894-.621-.31L16 16l-3.658-7.316A3 3 0 1114 6z"/><path d="M8.824 19.986L16 16l-.486-.874-7.18 3.989a3 3 0 10.49.871z"/></symbol><symbol viewBox="0 0 16 16" id="overflow16" xmlns="http://www.w3.org/2000/svg"><path d="M9 4a1 1 0 11-2 0 1 1 0 012 0zm0 4a1 1 0 11-2 0 1 1 0 012 0zm0 4a1 1 0 11-2 0 1 1 0 012 0z"/></symbol><symbol viewBox="0 0 24 24" id="overflow24" xmlns="http://www.w3.org/2000/svg"><path d="M13.5 6.5a1.5 1.5 0 11-3 0 1.5 1.5 0 013 0zm0 5.5a1.5 1.5 0 11-3 0 1.5 1.5 0 013 0zm0 5.5a1.5 1.5 0 11-3 0 1.5 1.5 0 013 0z"/></symbol><symbol viewBox="0 0 32 32" id="overflow32" xmlns="http://www.w3.org/2000/svg"><path d="M18 10a2 2 0 11-4 0 2 2 0 014 0zm0 6a2 2 0 11-4 0 2 2 0 014 0zm0 6a2 2 0 11-4 0 2 2 0 014 0z"/></symbol><symbol viewBox="0 0 16 16" id="placeholder16" xmlns="http://www.w3.org/2000/svg"><path d="M8 2l.679 5.321L14 8l-5.321.679L8 14l-.679-5.321L2 8l5.321-.679L8 2z"/></symbol><symbol viewBox="0 0 24 24" id="placeholder24" xmlns="http://www.w3.org/2000/svg"><path d="M12 4l.905 7.095L20 12l-7.095.905L12 20l-.905-7.095L4 12l7.095-.905L12 4z"/></symbol><symbol viewBox="0 0 32 32" id="placeholder32" xmlns="http://www.w3.org/2000/svg"><path d="M16 4l1.358 10.642L28 16l-10.642 1.358L16 28l-1.358-10.642L4 16l10.642-1.358L16 4z"/></symbol><symbol viewBox="0 0 32 32" id="plus32" xmlns="http://www.w3.org/2000/svg"><path d="M15 8a1 1 0 112 0v16a1 1 0 11-2 0V8z"/><path d="M7 16a1 1 0 011-1h16a1 1 0 110 2H8a1 1 0 01-1-1z"/></symbol><symbol viewBox="0 0 32 32" id="receive32" xmlns="http://www.w3.org/2000/svg"><path d="M16 22c3.314 0 6-1.343 6-3s-2.686-3-6-3-6 1.343-6 3 2.686 3 6 3z"/><path d="M10 20.5V22c0 1.657 2.686 3 6 3s6-1.343 6-3v-1.5c0 1.657-2.686 3-6 3s-6-1.343-6-3z"/><path d="M10 23.5V25c0 1.657 2.686 3 6 3s6-1.343 6-3v-1.5c0 1.657-2.686 3-6 3s-6-1.343-6-3zM20.707 8.707a1 1 0 00-1.414-1.414L17 9.586V3a1 1 0 10-2 0v6.586l-2.293-2.293a1 1 0 10-1.414 1.414L16 13.414l4.707-4.707z"/></symbol><symbol viewBox="0 0 32 32" id="refresh32" xmlns="http://www.w3.org/2000/svg"><path d="M18 9.97a1 1 0 000 2v-2zm4.97 1v1h1v-1h-1zm1-4.97a1 1 0 00-2 0h2zm-8.22 18.997l-.028 1 .028-1zm-5.374-1.972l.625-.78-.625.78zM7.707 12.504l.921.388-.921-.388zm3.786-4.294l.5.865-.5-.865zm5.61-1.142l-.123.992.122-.992zM18 11.97h4.97v-2H18v2zm5.97-1V6h-2v4.97h2zm-.337 7.425a8 8 0 01-2.988 4.119l1.16 1.628a10 10 0 003.736-5.148l-1.908-.599zm-2.988 4.119a8 8 0 01-4.868 1.483l-.056 2a10 10 0 006.085-1.855l-1.162-1.628zm-4.868 1.483A8 8 0 0111 22.245l-1.25 1.56a10 10 0 005.971 2.191l.056-2zM11 22.245a8 8 0 01-2.755-4.279l-1.938.492a10 10 0 003.443 5.348L11 22.245zm-2.755-4.279a8 8 0 01.383-5.074l-1.843-.777a10 10 0 00-.478 6.343l1.938-.492zm.383-5.074a8 8 0 013.366-3.817l-1.002-1.73a10 10 0 00-4.207 4.77l1.843.777zm3.366-3.817A8 8 0 0116.98 8.06l.245-1.985a10 10 0 00-6.233 1.27l1.002 1.73zM16.98 8.06a8 8 0 014.59 2.197l1.392-1.435a10 10 0 00-5.737-2.747L16.98 8.06z"/></symbol><symbol viewBox="0 0 16 16" id="search16" xmlns="http://www.w3.org/2000/svg"><path fill-rule="evenodd" d="M11 11a5 5 0 111.052-1.07l1.478 1.479a.75.75 0 01-1.06 1.06L11 11zm.5-4a3.5 3.5 0 11-7 0 3.5 3.5 0 017 0z" clip-rule="evenodd"/></symbol><symbol viewBox="0 0 24 24" id="search24" xmlns="http://www.w3.org/2000/svg"><path fill-rule="evenodd" d="M17.135 17.135a8 8 0 111.362-1.466l3.21 3.21a1 1 0 01-1.414 1.414l-3.158-3.158zM18 11a6 6 0 11-12 0 6 6 0 0112 0z" clip-rule="evenodd"/></symbol><symbol viewBox="0 0 32 32" id="search32" xmlns="http://www.w3.org/2000/svg"><path fill-rule="evenodd" d="M22.714 24.714A10.952 10.952 0 0116 27C9.925 27 5 22.075 5 16S9.925 5 16 5s11 4.925 11 11a10.95 10.95 0 01-2.181 6.576l4.241 4.242a1.5 1.5 0 11-2.12 2.121l-4.226-4.225zm-.79-2.62a8.5 8.5 0 11.27-.275 1.534 1.534 0 00-.27.276z" clip-rule="evenodd"/></symbol><symbol viewBox="0 0 32 32" id="send32" xmlns="http://www.w3.org/2000/svg"><path d="M16 24c3.314 0 6-1.343 6-3s-2.686-3-6-3-6 1.343-6 3 2.686 3 6 3z"/><path d="M10 24v-1.5c0 1.657 2.686 3 6 3s6-1.343 6-3V24c0 1.657-2.686 3-6 3s-6-1.343-6-3zm3.379-18.328a1 1 0 100 2h3.242l-4.656 4.656a1 1 0 001.414 1.415l4.657-4.657v3.242a1 1 0 002 0V5.672h-6.657z"/></symbol><symbol viewBox="0 0 24 24" id="show24" xmlns="http://www.w3.org/2000/svg"><path d="M12 18c-2.667 0-4.937-1.299-6.574-2.8a11.95 11.95 0 01-1.872-2.164 5.894 5.894 0 01-.457-.808A1.9 1.9 0 013.009 12a1.82 1.82 0 01.088-.228c.094-.21.244-.486.457-.808A11.952 11.952 0 015.426 8.8C7.063 7.299 9.333 6 12 6s4.937 1.299 6.574 2.8a11.951 11.951 0 011.872 2.164c.213.322.363.598.457.808.052.116.077.19.088.228a1.881 1.881 0 01-.088.228c-.093.21-.244.486-.457.808a11.95 11.95 0 01-1.872 2.164C16.937 16.702 14.667 18 12 18zm0-3a3 3 0 100-6 3 3 0 000 6z"/></symbol><symbol viewBox="0 0 32 32" id="stake32" xmlns="http://www.w3.org/2000/svg"><path d="M8 19c3.314 0 6-1.343 6-3s-2.686-3-6-3-6 1.343-6 3 2.686 3 6 3z"/><path d="M2 17.5V19c0 1.657 2.686 3 6 3s6-1.343 6-3v-1.5c0 1.657-2.686 3-6 3s-6-1.343-6-3z"/><path d="M2 20.5V22c0 1.657 2.686 3 6 3s6-1.343 6-3v-1.5c0 1.657-2.686 3-6 3s-6-1.343-6-3zM22 13c3.314 0 6-1.343 6-3s-2.686-3-6-3-6 1.343-6 3 2.686 3 6 3z"/><path d="M16 11.5V13c0 1.657 2.686 3 6 3s6-1.343 6-3v-1.5c0 1.657-2.686 3-6 3s-6-1.343-6-3z"/><path d="M16 14.5V16c0 1.657 2.686 3 6 3s6-1.343 6-3v-1.5c0 1.657-2.686 3-6 3s-6-1.343-6-3z"/><path d="M16 17.5V19c0 1.657 2.686 3 6 3s6-1.343 6-3v-1.5c0 1.657-2.686 3-6 3s-6-1.343-6-3z"/><path d="M16 22v-1.5c0 1.657 2.686 3 6 3s6-1.343 6-3V22c0 1.657-2.686 3-6 3s-6-1.343-6-3z"/></symbol><symbol viewBox="0 0 24 24" id="unlock24" xmlns="http://www.w3.org/2000/svg"><path d="M5 13a2 2 0 012-2h10a2 2 0 012 2v6a2 2 0 01-2 2H7a2 2 0 01-2-2v-6z"/><path d="M15 8v5a3 3 0 01-4 2.83v2.07a5 5 0 006-4.9V8A5 5 0 007 8v1h2V8a3 3 0 116 0z"/></symbol><symbol viewBox="0 0 32 32" id="unlock32" xmlns="http://www.w3.org/2000/svg"><path d="M8 16a2 2 0 012-2h12a2 2 0 012 2v8a2 2 0 01-2 2H10a2 2 0 01-2-2v-8z"/><path d="M19.5 11v7a3.502 3.502 0 01-2.5 3.355v2.562A6.002 6.002 0 0022 18v-7a6 6 0 00-12 0h2.5a3.5 3.5 0 117 0z"/></symbol><symbol viewBox="0 0 32 32" id="wallets32" xmlns="http://www.w3.org/2000/svg"><path fill-rule="evenodd" d="M5 11a2 2 0 00-2 2v12a2 2 0 002 2h16a2 2 0 002-2v-3h-5a1 1 0 01-1-1v-4a1 1 0 011-1h5v-3a2 2 0 00-2-2H5z" clip-rule="evenodd"/><path d="M24 24a2 2 0 002-2V10a2 2 0 00-2-2H8a2 2 0 00-2 2h16a2 2 0 012 2v11c0 .364-.097.706-.268 1H24z"/><path d="M18 18c0-.552.373-1 .833-1H23v4h-4.167c-.46 0-.833-.448-.833-1v-2z"/><path d="M27 21a2 2 0 002-2V7a2 2 0 00-2-2H11a2 2 0 00-2 2h16a2 2 0 012 2v11c0 .364-.097.706-.268 1H27z"/></symbol></svg>