<svg xmlns="http://www.w3.org/2000/svg" xmlns:xlink="http://www.w3.org/1999/xlink"><symbol viewBox="0 0 16 16" id="backarrow16" xmlns="http://www.w3.org/2000/svg"><path d="M8 4L4 8l4 4" stroke-width="1.5" stroke-linecap="round"/><path d="M4 7.25h7.25a.75.75 0 010 1.5H4v-1.5z"/></symbol><symbol viewBox="0 0 24 24" id="backarrow24" xmlns="http://www.w3.org/2000/svg"><path d="M12 7l-5 5 5 5" stroke-width="2" stroke-linecap="round"/><path d="M8 11h9a1 1 0 110 2H8v-2z"/></symbol><symbol viewBox="0 0 32 32" id="backarrow32" xmlns="http://www.w3.org/2000/svg"><path d="M17.121 8.707a1 1 0 00-1.414-1.414L7 16l8.707 8.707a1 1 0 001.414-1.414L10.828 17h12.586a1 1 0 100-2H10.828l6.293-6.293z"/></symbol><symbol fill="none" viewBox="0 0 16 16" id="checkmark16" xmlns="http://www.w3.org/2000/svg"><path fill-rule="evenodd" clip-rule="evenodd" d="M8 14A6 6 0 108 2a6 6 0 000 12zm3.38-7.675a.5.5 0 10-.76-.65L7.537 9.272 5.847 7.64a.5.5 0 00-.694.72l2.071 2 .382.368.345-.403 3.429-4z" fill="#555"/></symbol><symbol fill="none" viewBox="0 0 24 24" id="checkmark24" xmlns="http://www.w3.org/2000/svg"><path fill-rule="evenodd" clip-rule="evenodd" d="M12 21a9 9 0 100-18 9 9 0 000 18zm4.75-10.72a.75.75 0 10-1.062-1.06l-4.532 4.532-2-2.001a.75.75 0 10-1.061 1.06l2.53 2.532.531.53.53-.53 5.063-5.063z" fill="#555"/></symbol><symbol fill="none" viewBox="0 0 32 32" id="checkmark32" xmlns="http://www.w3.org/2000/svg"><path fill-rule="evenodd" clip-rule="evenodd" d="M16 28c6.627 0 12-5.373 12-12S22.627 4 16 4 4 9.373 4 16s5.373 12 12 12zm6.707-14.893a1 1 0 00-1.414-1.414L14.8 18.186l-2.893-2.893a1 1 0 00-1.414 1.414l3.6 3.6.707.707.707-.707 7.2-7.2z" fill="#555"/></symbol><symbol viewBox="0 0 32 32" id="clock32" xmlns="http://www.w3.org/2000/svg"><path fill-rule="evenodd" clip-rule="evenodd" d="M16 26c5.523 0 10-4.477 10-10S21.523 6 16 6 6 10.477 6 16s4.477 10 10 10zm1-15a1 1 0 10-2 0v5.535l.445.297 3 2a1 1 0 001.11-1.664L17 15.465V11z"/></symbol><symbol fill="none" viewBox="0 0 16 16" id="close16" xmlns="http://www.w3.org/2000/svg"><path d="M4 4l8 8M12 4l-8 8" stroke="#555" stroke-width="2" stroke-linecap="round"/></symbol><symbol fill="none" viewBox="0 0 24 24" id="close24" xmlns="http://www.w3.org/2000/svg"><path d="M6 6l12 12M18 6L6 18" stroke="#555" stroke-width="2.5" stroke-linecap="round"/></symbol><symbol fill="none" viewBox="0 0 32 32" id="close32" xmlns="http://www.w3.org/2000/svg"><path d="M8 8l16 16M24 8L8 24" stroke="#555" stroke-width="3" stroke-linecap="round"/></symbol><symbol fill="none" viewBox="0 0 32 32" id="collapse32" xmlns="http://www.w3.org/2000/svg"><path fill-rule="evenodd" clip-rule="evenodd" d="M9 10h14V8H9v2zm11.707 6.707a1 1 0 01-1.414 0L17 14.414V24h-2v-9.586l-2.293 2.293a1 1 0 01-1.414-1.414l4-4 .707-.707.707.707 4 4a1 1 0 010 1.414z" fill="#555"/></symbol><symbol fill="none" viewBox="0 0 32 32" id="contacts32-alpha-dark" xmlns="http://www.w3.org/2000/svg"><circle cx="16" cy="14" r="5" fill="#555"/><path opacity=".5" fill-rule="evenodd" clip-rule="evenodd" d="M8.49 24.038A8.992 8.992 0 0116 20a8.992 8.992 0 017.51 4.038A10.97 10.97 0 0027 16c0-6.075-4.925-11-11-11S5 9.925 5 16a10.97 10.97 0 003.49 8.038zm6.892 3.946C9.042 27.663 4 22.42 4 16 4 9.373 9.373 4 16 4s12 5.373 12 12a11.97 11.97 0 01-3.975 8.922A11.956 11.956 0 0116 28m-.618-.016c.205.01.41.016.618.016l-.618-.016z" fill="#555"/></symbol><symbol fill="none" viewBox="0 0 32 32" id="contacts32-alpha-light" xmlns="http://www.w3.org/2000/svg"><circle cx="16" cy="14" r="5" fill="#fff"/><path opacity=".5" fill-rule="evenodd" clip-rule="evenodd" d="M8.49 24.038A8.992 8.992 0 0116 20a8.992 8.992 0 017.51 4.038A10.97 10.97 0 0027 16c0-6.075-4.925-11-11-11S5 9.925 5 16a10.97 10.97 0 003.49 8.038zm6.892 3.946C9.042 27.663 4 22.42 4 16 4 9.373 9.373 4 16 4s12 5.373 12 12a11.97 11.97 0 01-3.975 8.922A11.956 11.956 0 0116 28m-.618-.016c.205.01.41.016.618.016l-.618-.016z" fill="#fff"/></symbol><symbol fill="none" viewBox="0 0 16 16" id="delete16" xmlns="http://www.w3.org/2000/svg"><path d="M4 5h8v7a2 2 0 01-2 2H6a2 2 0 01-2-2V5zM3 3h10v1H3zM6 2h4v1H6z" fill="#555"/></symbol><symbol fill="none" viewBox="0 0 24 24" id="delete24" xmlns="http://www.w3.org/2000/svg"><path d="M7 7h10v10a2 2 0 01-2 2H9a2 2 0 01-2-2V7zM6 5h12v1H6zM10 4h4v1h-4z" fill="#555"/></symbol><symbol fill="none" viewBox="0 0 32 32" id="delete32" xmlns="http://www.w3.org/2000/svg"><path d="M10 10h12v12a2 2 0 01-2 2h-8a2 2 0 01-2-2V10zM9 8h14v1H9zM13 7h6v1h-6z" fill="#555"/></symbol><symbol fill="none" viewBox="0 0 16 16" id="edit16" xmlns="http://www.w3.org/2000/svg"><path d="M11.293 2.707a1 1 0 011.414 0l.586.586a1 1 0 010 1.414L6 12l-2-2 7.293-7.293zM3.5 10.5l2 2L3 13l.5-2.5z" fill="#555"/></symbol><symbol fill="none" viewBox="0 0 24 24" id="edit24" xmlns="http://www.w3.org/2000/svg"><path d="M15.598 6.069a1 1 0 011.414 0l.919.919a1 1 0 010 1.414l-9.265 9.265-2.334-2.333 9.266-9.265zM5.75 15.917l2.333 2.333-2.916.584.583-2.917z" fill="#555"/></symbol><symbol fill="none" viewBox="0 0 32 32" id="edit32" xmlns="http://www.w3.org/2000/svg"><path d="M20.434 8.707a1 1 0 011.415 0l1.414 1.414a1 1 0 010 1.415L12.656 22.142l-2.828-2.828L20.435 8.707zM9.121 20.02l2.829 2.83-3.536.706.707-3.535z" fill="#555"/></symbol><symbol fill="none" viewBox="0 0 16 16" id="error16" xmlns="http://www.w3.org/2000/svg"><path fill-rule="evenodd" clip-rule="evenodd" d="M2.849 11.062L7.13 3.53a1 1 0 011.739 0l4.281 7.532a1 1 0 01-.869 1.494H3.718a1 1 0 01-.87-1.494zM7.499 11V7.5h1V11h-1zM8 6.75a.75.75 0 100-1.5.75.75 0 000 1.5z" fill="#555"/></symbol><symbol fill="none" viewBox="0 0 24 24" id="error24" xmlns="http://www.w3.org/2000/svg"><path fill-rule="evenodd" clip-rule="evenodd" d="M10.72 4.094L2.394 17.718A1.5 1.5 0 003.674 20h16.651a1.5 1.5 0 001.28-2.282L13.28 4.094a1.5 1.5 0 00-2.56 0zm2.545 4.921a1.266 1.266 0 11-2.531 0 1.266 1.266 0 012.531 0zm-2.11 8.016V11.97h1.688v5.062h-1.687z" fill="#555"/></symbol><symbol fill="none" viewBox="0 0 32 32" id="error32" xmlns="http://www.w3.org/2000/svg"><path fill-rule="evenodd" clip-rule="evenodd" d="M14.728 5.035L2.435 24.705A1.5 1.5 0 003.707 27h24.587a1.5 1.5 0 001.272-2.295L17.272 5.035a1.5 1.5 0 00-2.544 0zm2.96 6.986a1.687 1.687 0 11-3.375 0 1.687 1.687 0 013.375 0zm-2.813 10.687v-6.75h2.25v6.75h-2.25z" fill="#555"/></symbol><symbol fill="none" viewBox="0 0 16 16" id="information16" xmlns="http://www.w3.org/2000/svg"><path fill-rule="evenodd" clip-rule="evenodd" d="M8 13A5 5 0 108 3a5 5 0 000 10zm.75-7a.75.75 0 11-1.5 0 .75.75 0 011.5 0zM8.5 7.5V11h-1V7.5h1z" fill="#555"/></symbol><symbol fill="none" viewBox="0 0 24 24" id="information24" xmlns="http://www.w3.org/2000/svg"><path fill-rule="evenodd" clip-rule="evenodd" d="M12 21a9 9 0 100-18 9 9 0 000 18zm1.266-12.516a1.266 1.266 0 11-2.532 0 1.266 1.266 0 012.532 0zm-2.11 8.016v-5.063h1.688V16.5h-1.688z" fill="#555"/></symbol><symbol fill="none" viewBox="0 0 32 32" id="information32" xmlns="http://www.w3.org/2000/svg"><path fill-rule="evenodd" clip-rule="evenodd" d="M16 28c6.627 0 12-5.373 12-12S22.627 4 16 4 4 9.373 4 16s5.373 12 12 12zm1.5-17.7a1.5 1.5 0 11-3 0 1.5 1.5 0 013 0zm-.3 3.3V22h-2.4v-8.4h2.4z" fill="#555"/></symbol><symbol fill="none" viewBox="0 0 32 32" id="information32-complex" xmlns="http://www.w3.org/2000/svg"><circle opacity=".25" cx="16" cy="16" r="12" fill="#555"/><path d="M15 14h2v9h-2v-9z" fill="#555"/><circle cx="16" cy="10.5" r="1.5" fill="#555"/></symbol><symbol fill="none" viewBox="0 0 32 32" id="logout32" xmlns="http://www.w3.org/2000/svg"><rect x="9" y="7" width="14" height="18" rx="1" stroke="#555" stroke-width="2"/><path fill-rule="evenodd" clip-rule="evenodd" d="M14.293 19.293a1 1 0 001.414 1.414l4-4 .707-.707-.707-.707-4-4a1 1 0 00-1.414 1.414L16.586 15H10a1 1 0 100 2h6.586l-2.293 2.293z" fill="#555"/></symbol><symbol fill="none" viewBox="0 0 32 32" id="logout32-alpha-dark" xmlns="http://www.w3.org/2000/svg"><rect opacity=".25" x="8" y="4" width="16" height="24" rx="2" fill="#555"/><path fill-rule="evenodd" clip-rule="evenodd" d="M15.293 19.293a1 1 0 001.414 1.414l4-4 .707-.707-.707-.707-4-4a1 1 0 00-1.414 1.414L17.586 15H12a1 1 0 100 2h5.586l-2.293 2.293z" fill="#555"/></symbol><symbol fill="none" viewBox="0 0 32 32" id="menu32" xmlns="http://www.w3.org/2000/svg"><path fill="#555" d="M6 9h20v2H6zM6 15h20v2H6zM6 21h20v2H6z"/></symbol><symbol fill="none" viewBox="0 0 32 32" id="newtworks32-alpha-dark" xmlns="http://www.w3.org/2000/svg"><circle cx="16" cy="16" r="5" fill="#555"/><path opacity=".5" fill-rule="evenodd" clip-rule="evenodd" d="M14 6a2.99 2.99 0 01-.84 2.083l3.555 7.112 5.292-5.953a3 3 0 11.86.537l-5.817 6.545.033.218 7.464 3.731a3 3 0 11-.432.902l-6.845-3.422.962 6.256a3 3 0 11-.998.09l-1.06-6.894-.621-.31L16 16l-3.658-7.316A3 3 0 1114 6zM8.824 19.986L16 16l-.486-.874-7.18 3.989a3 3 0 10.49.871z" fill="#555"/></symbol><symbol fill="none" viewBox="0 0 32 32" id="open32" xmlns="http://www.w3.org/2000/svg"><path d="M15 8h-5a2 2 0 00-2 2v12a2 2 0 002 2h12a2 2 0 002-2v-5" stroke="#555" stroke-width="2" stroke-linecap="round"/><path d="M24.192 12.485a1 1 0 102 0h-2zm1-5.657h1v-1h-1v1zm-5.657-1a1 1 0 100 2v-2zm6.657 6.657V6.828h-2v5.657h2zm-1-6.657h-5.657v2h5.657v-2z" fill="#555"/><path fill="#555" d="M25.192 8.242l-7.778 7.778L16 14.606l7.778-7.778z"/></symbol><symbol fill="none" viewBox="0 0 16 16" id="overflow16" xmlns="http://www.w3.org/2000/svg"><circle cx="8" cy="4" r="1" fill="#555"/><circle cx="8" cy="8" r="1" fill="#555"/><circle cx="8" cy="12" r="1" fill="#555"/></symbol><symbol fill="none" viewBox="0 0 24 24" id="overflow24" xmlns="http://www.w3.org/2000/svg"><circle cx="12" cy="6.5" r="1.5" fill="#555"/><circle cx="12" cy="12" r="1.5" fill="#555"/><circle cx="12" cy="17.5" r="1.5" fill="#555"/></symbol><symbol fill="none" viewBox="0 0 32 32" id="overflow32" xmlns="http://www.w3.org/2000/svg"><circle cx="16" cy="10" r="2" fill="#555"/><circle cx="16" cy="16" r="2" fill="#555"/><circle cx="16" cy="22" r="2" fill="#555"/></symbol><symbol fill="none" viewBox="0 0 16 16" id="placeholder16" xmlns="http://www.w3.org/2000/svg"><circle cx="8" cy="8" r="7.5" stroke="#555"/><path d="M8 2l.679 5.321L14 8l-5.321.679L8 14l-.679-5.321L2 8l5.321-.679L8 2z" fill="#555"/></symbol><symbol fill="none" viewBox="0 0 16 16" id="placeholder16-complex" xmlns="http://www.w3.org/2000/svg"><circle cx="8" cy="8" r="8" fill="#fff" fill-opacity=".25"/><circle cx="8" cy="8" r="7.5" stroke="#555" stroke-opacity=".5"/><path d="M8 2l.679 5.321L14 8l-5.321.679L8 14l-.679-5.321L2 8l5.321-.679L8 2z" fill="#555"/></symbol><symbol fill="none" viewBox="0 0 24 24" id="placeholder24" xmlns="http://www.w3.org/2000/svg"><circle cx="12" cy="12" r="11.5" stroke="#555"/><path d="M12 4l.905 7.095L20 12l-7.095.905L12 20l-.905-7.095L4 12l7.095-.905L12 4z" fill="#555"/></symbol><symbol fill="none" viewBox="0 0 24 24" id="placeholder24-complex" xmlns="http://www.w3.org/2000/svg"><circle cx="12" cy="12" r="12" fill="#fff" fill-opacity=".25"/><circle cx="12" cy="12" r="11.5" stroke="#555" stroke-opacity=".5"/><path d="M12 4l.905 7.095L20 12l-7.095.905L12 20l-.905-7.095L4 12l7.095-.905L12 4z" fill="#555"/></symbol><symbol fill="none" viewBox="0 0 32 32" id="placeholder32" xmlns="http://www.w3.org/2000/svg"><circle cx="16" cy="16" r="15.5" stroke="#555"/><path d="M16 4l1.358 10.642L28 16l-10.642 1.358L16 28l-1.358-10.642L4 16l10.642-1.358L16 4z" fill="#555"/></symbol><symbol fill="none" viewBox="0 0 32 32" id="placeholder32-complex" xmlns="http://www.w3.org/2000/svg"><circle cx="16" cy="16" r="16" fill="#fff" fill-opacity=".25"/><circle cx="16" cy="16" r="15.5" stroke="#555" stroke-opacity=".5"/><path d="M16 4l1.358 10.642L28 16l-10.642 1.358L16 28l-1.358-10.642L4 16l10.642-1.358L16 4z" fill="#555"/></symbol><symbol fill="none" viewBox="0 0 32 32" id="plus32" xmlns="http://www.w3.org/2000/svg"><rect x="15" y="7" width="2" height="18" rx="1" fill="#555"/><rect x="7" y="15" width="18" height="2" rx="1" fill="#555"/></symbol><symbol fill="none" viewBox="0 0 32 32" id="qrcode32" xmlns="http://www.w3.org/2000/svg"><path d="M12 8h-2a2 2 0 00-2 2v2M24 12v-2a2 2 0 00-2-2h-2M20 24h2a2 2 0 002-2v-2M8 20v2a2 2 0 002 2h2" stroke="#555" stroke-width="2" stroke-linecap="round"/><path stroke="#555" d="M11.5 11.5h3v3h-3z"/><path fill="#555" stroke="#555" d="M17.5 11.5h3v3h-3z"/><path stroke="#555" d="M11.5 17.5h3v3h-3z"/><path fill="#555" d="M19 19h2v2h-2zM11 16h2v1h-2zM14 16h1v1h-1zM16 16h3v1h-3zM16 17h2v2h-2zM20 16h1v1h-1zM19 18h1v1h-1zM16 20h2v1h-2z"/></symbol><symbol viewBox="0 0 32 32" id="receive32" xmlns="http://www.w3.org/2000/svg"><path fill-rule="evenodd" clip-rule="evenodd" d="M16 22c3.314 0 6-1.343 6-3s-2.686-3-6-3-6 1.343-6 3 2.686 3 6 3zm-6-1.5V22c0 1.657 2.686 3 6 3s6-1.343 6-3v-1.5c0 1.657-2.686 3-6 3s-6-1.343-6-3zm0 3V25c0 1.657 2.686 3 6 3s6-1.343 6-3v-1.5c0 1.657-2.686 3-6 3s-6-1.343-6-3z" /><path d="M20.707 8.707a1 1 0 00-1.414-1.414L17 9.586V3a1 1 0 10-2 0v6.586l-2.293-2.293a1 1 0 10-1.414 1.414L16 13.414l4.707-4.707z"/></symbol><symbol fill="none" viewBox="0 0 32 32" id="receive32-alpha-dark" xmlns="http://www.w3.org/2000/svg"><path opacity=".5" fill-rule="evenodd" clip-rule="evenodd" d="M16 22c3.314 0 6-1.343 6-3s-2.686-3-6-3-6 1.343-6 3 2.686 3 6 3zm-6-1.5V22c0 1.657 2.686 3 6 3s6-1.343 6-3v-1.5c0 1.657-2.686 3-6 3s-6-1.343-6-3zm0 3V25c0 1.657 2.686 3 6 3s6-1.343 6-3v-1.5c0 1.657-2.686 3-6 3s-6-1.343-6-3z" fill="#555"/><path d="M20.707 8.707a1 1 0 00-1.414-1.414L17 9.586V3a1 1 0 10-2 0v6.586l-2.293-2.293a1 1 0 10-1.414 1.414L16 13.414l4.707-4.707z" fill="#555"/></symbol><symbol fill="none" viewBox="0 0 32 32" id="receive32-alpha-light" xmlns="http://www.w3.org/2000/svg"><path opacity=".5" fill-rule="evenodd" clip-rule="evenodd" d="M16 22c3.314 0 6-1.343 6-3s-2.686-3-6-3-6 1.343-6 3 2.686 3 6 3zm-6-1.5V22c0 1.657 2.686 3 6 3s6-1.343 6-3v-1.5c0 1.657-2.686 3-6 3s-6-1.343-6-3zm0 3V25c0 1.657 2.686 3 6 3s6-1.343 6-3v-1.5c0 1.657-2.686 3-6 3s-6-1.343-6-3z" fill="#fff"/><path d="M20.707 8.707a1 1 0 00-1.414-1.414L17 9.586V3a1 1 0 10-2 0v6.586l-2.293-2.293a1 1 0 10-1.414 1.414L16 13.414l4.707-4.707z" fill="#fff"/></symbol><symbol fill="none" viewBox="0 0 32 32" id="refresh32" xmlns="http://www.w3.org/2000/svg"><path d="M18 9.97a1 1 0 000 2v-2zm4.97 1v1h1v-1h-1zm1-4.97a1 1 0 10-2 0h2zM18 11.97h4.97v-2H18v2zm5.97-1V6h-2v4.97h2z" fill="#555"/><path d="M24.587 18.695a9 9 0 11-2.321-9.156" stroke="#555" stroke-width="2" stroke-linejoin="round"/></symbol><symbol viewBox="0 0 32 32" id="send32" xmlns="http://www.w3.org/2000/svg"><path fill-rule="evenodd" clip-rule="evenodd" d="M16 24c3.314 0 6-1.343 6-3s-2.686-3-6-3-6 1.343-6 3 2.686 3 6 3zm-6 0v-1.5c0 1.657 2.686 3 6 3s6-1.343 6-3V24c0 1.657-2.686 3-6 3s-6-1.343-6-3z"/><path d="M13.379 5.671a1 1 0 100 2h3.242l-4.656 4.657a1 1 0 101.414 1.415l4.656-4.657v3.242a1 1 0 102 0V5.671H13.38z"/></symbol><symbol fill="none" viewBox="0 0 32 32" id="send32-alpha-dark" xmlns="http://www.w3.org/2000/svg"><path opacity=".5" fill-rule="evenodd" clip-rule="evenodd" d="M16 24c3.314 0 6-1.343 6-3s-2.686-3-6-3-6 1.343-6 3 2.686 3 6 3zm-6 0v-1.5c0 1.657 2.686 3 6 3s6-1.343 6-3V24c0 1.657-2.686 3-6 3s-6-1.343-6-3z" fill="#555"/><path d="M13.379 5.672a1 1 0 100 2h3.242l-4.656 4.657a1 1 0 101.414 1.414l4.656-4.657v3.243a1 1 0 102 0V5.672H13.38z" fill="#555"/></symbol><symbol fill="none" viewBox="0 0 32 32" id="send32-alpha-light" xmlns="http://www.w3.org/2000/svg"><path opacity=".5" fill-rule="evenodd" clip-rule="evenodd" d="M16 24c3.314 0 6-1.343 6-3s-2.686-3-6-3-6 1.343-6 3 2.686 3 6 3zm-6 0v-1.5c0 1.657 2.686 3 6 3s6-1.343 6-3V24c0 1.657-2.686 3-6 3s-6-1.343-6-3z" fill="#fff"/><path d="M13.379 5.672a1 1 0 100 2h3.242l-4.656 4.657a1 1 0 101.414 1.414l4.656-4.657v3.243a1 1 0 102 0V5.672H13.38z" fill="#fff"/></symbol><symbol fill="none" viewBox="0 0 32 32" id="stake32-alpha-dark" xmlns="http://www.w3.org/2000/svg"><path fill-rule="evenodd" clip-rule="evenodd" d="M8 19c3.314 0 6-1.343 6-3s-2.686-3-6-3-6 1.343-6 3 2.686 3 6 3zm-6-1.5V19c0 1.657 2.686 3 6 3s6-1.343 6-3v-1.5c0 1.657-2.686 3-6 3s-6-1.343-6-3zm0 3V22c0 1.657 2.686 3 6 3s6-1.343 6-3v-1.5c0 1.657-2.686 3-6 3s-6-1.343-6-3z" fill="#555"/><path opacity=".5" fill-rule="evenodd" clip-rule="evenodd" d="M22 13c3.314 0 6-1.343 6-3s-2.686-3-6-3-6 1.343-6 3 2.686 3 6 3zm-6-1.5V13c0 1.657 2.686 3 6 3s6-1.343 6-3v-1.5c0 1.657-2.686 3-6 3s-6-1.343-6-3zm0 3V16c0 1.657 2.686 3 6 3s6-1.343 6-3v-1.5c0 1.657-2.686 3-6 3s-6-1.343-6-3zm0 3V19c0 1.657 2.686 3 6 3s6-1.343 6-3v-1.5c0 1.657-2.686 3-6 3s-6-1.343-6-3zm0 4.5v-1.5c0 1.657 2.686 3 6 3s6-1.343 6-3V22c0 1.657-2.686 3-6 3s-6-1.343-6-3z" fill="#555"/></symbol><symbol fill="none" viewBox="0 0 32 32" id="unlock32" xmlns="http://www.w3.org/2000/svg"><path fill-rule="evenodd" clip-rule="evenodd" d="M16 7a3 3 0 013 3v4h-8a2 2 0 00-2 2v7a2 2 0 002 2h10a2 2 0 002-2v-7a2 2 0 00-2-2v-4a5 5 0 00-10 0v2h2v-2a3 3 0 013-3z" fill="#555"/></symbol><symbol fill="none" viewBox="0 0 32 32" id="unmask32" xmlns="http://www.w3.org/2000/svg"><path d="M16 18a2 2 0 100-4 2 2 0 000 4z" fill="#555"/><path fill-rule="evenodd" clip-rule="evenodd" d="M26 16c0 1-4.477 6-10 6S6 17 6 16s4.477-6 10-6 10 5 10 6zm-6 0a4 4 0 11-8 0 4 4 0 018 0z" fill="#555"/></symbol><symbol fill="none" viewBox="0 0 32 32" id="wallets32-alpha-dark" xmlns="http://www.w3.org/2000/svg"><path opacity=".25" d="M29 19a2 2 0 01-2 2H11a2 2 0 01-2-2V7a2 2 0 012-2h16a2 2 0 012 2v12z" fill="#555"/><path opacity=".5" d="M26 22a2 2 0 01-2 2H8a2 2 0 01-2-2V10a2 2 0 012-2h16a2 2 0 012 2v12z" fill="#555"/><path fill-rule="evenodd" clip-rule="evenodd" d="M5 11a2 2 0 00-2 2v12a2 2 0 002 2h16a2 2 0 002-2v-3h-5a1 1 0 01-1-1v-4a1 1 0 011-1h5v-3a2 2 0 00-2-2H5z" fill="#555"/><path d="M18 18a1 1 0 011-1h5v4h-5a1 1 0 01-1-1v-2z" fill="#555"/></symbol></svg>