<svg xmlns="http://www.w3.org/2000/svg" xmlns:xlink="http://www.w3.org/1999/xlink"><symbol viewBox="0 0 16 16" id="attachment16" xmlns="http://www.w3.org/2000/svg"><path d="M13.21 6.45v4.82a1.3 1.3 0 01-1.3 1.3H4.09a1.3 1.3 0 01-1.3-1.3V6.45a1.31 1.31 0 011.3-1.31h.58v1h-.58a.3.3 0 00-.3.31v4.82a.3.3 0 00.3.3h7.82a.3.3 0 00.3-.3V6.45a.299.299 0 00-.3-.31h-.58v-1h.58a1.31 1.31 0 011.3 1.31zM8 9.71l2.58-2.58a.502.502 0 10-.71-.71L8.5 7.79v-5a.5.5 0 10-1 0v5L6.16 6.46a.5.5 0 00-.854.355c0 .133.052.26.144.355L8 9.71z"/></symbol><symbol viewBox="0 0 24 24" id="attachment24" xmlns="http://www.w3.org/2000/svg"><path d="M19.81 9.67v7.23a2 2 0 01-1.95 2H6.14a2 2 0 01-1.95-2V9.67a2 2 0 011.95-1.95H7v1.5h-.86a.45.45 0 00-.45.45v7.23a.45.45 0 00.45.45h11.72a.45.45 0 00.45-.45V9.67a.45.45 0 00-.45-.45H17v-1.5h.87a2 2 0 011.94 1.95zM12 14.57l3.87-3.87a.77.77 0 000-1.07.75.75 0 00-1.06 0l-2.06 2.06V4.22a.75.75 0 10-1.5 0v7.48l-2-2a.75.75 0 00-1.06 1.06L12 14.57z"/></symbol><symbol viewBox="0 0 32 32" id="attachment32" xmlns="http://www.w3.org/2000/svg"><path d="M26.42 12.89v9.65a2.61 2.61 0 01-2.6 2.6H8.18a2.61 2.61 0 01-2.6-2.6v-9.65a2.61 2.61 0 012.6-2.6h1.16v2H8.18a.6.6 0 00-.6.6v9.65a.6.6 0 00.6.6h15.64a.6.6 0 00.6-.6v-9.65a.6.6 0 00-.6-.6h-1.16v-2h1.16a2.61 2.61 0 012.6 2.6zM16 19.42l5.16-5.16a1 1 0 10-1.42-1.41L17 15.59v-10a1 1 0 00-2 0v10l-2.68-2.68a1 1 0 00-1.41 1.41l5.09 5.1z"/></symbol><symbol viewBox="0 0 24 24" id="backarrow24" xmlns="http://www.w3.org/2000/svg"><path fill-rule="evenodd" d="M12.707 6.293a1 1 0 010 1.414L8.414 12l4.293 4.293a1 1 0 01-1.414 1.414L5.586 12l5.707-5.707a1 1 0 011.414 0z" clip-rule="evenodd"/><path d="M8 11h9a1 1 0 010 2H8v-2z"/></symbol><symbol viewBox="0 0 32 32" id="backarrow32" xmlns="http://www.w3.org/2000/svg"><path d="M17.121 8.707a1 1 0 00-1.414-1.414L7 16l8.707 8.707a1 1 0 001.414-1.414L10.828 17h12.586a1 1 0 100-2H10.828l6.293-6.293z"/></symbol><symbol viewBox="0 0 16 16" id="checkmark16first" xmlns="http://www.w3.org/2000/svg"><path d="M13 5l-6 6-3-3"/></symbol><symbol viewBox="0 0 16 16" id="checkmark16second" xmlns="http://www.w3.org/2000/svg"><path fill-rule="evenodd" d="M8 14A6 6 0 108 2a6 6 0 000 12zm3.38-7.675a.5.5 0 10-.76-.65L7.537 9.272 5.847 7.64a.5.5 0 00-.694.72l2.453 2.368 3.774-4.403z" clip-rule="evenodd"/></symbol><symbol viewBox="0 0 24 24" id="checkmark24first" xmlns="http://www.w3.org/2000/svg"><path d="M20 7L10 17l-5-5"/></symbol><symbol viewBox="0 0 24 24" id="checkmark24second" xmlns="http://www.w3.org/2000/svg"><path fill-rule="evenodd" d="M12 21a9 9 0 100-18 9 9 0 000 18zm4.75-10.72a.75.75 0 10-1.062-1.06l-4.532 4.532-2-2.001a.75.75 0 10-1.061 1.06l2.53 2.532.531.53.53-.53 5.063-5.063z" clip-rule="evenodd"/></symbol><symbol viewBox="0 0 32 32" id="checkmark32first" xmlns="http://www.w3.org/2000/svg"><path d="M26.666 9.333L13.333 22.667 6.666 16"/></symbol><symbol viewBox="0 0 32 32" id="checkmark32second" xmlns="http://www.w3.org/2000/svg"><path fill-rule="evenodd" d="M16 28c6.627 0 12-5.373 12-12S22.627 4 16 4 4 9.373 4 16s5.373 12 12 12zm6.707-14.893a1 1 0 00-1.414-1.414L14.8 18.186l-2.893-2.893a1 1 0 00-1.414 1.414l3.6 3.6.707.707.707-.707 7.2-7.2z" clip-rule="evenodd"/></symbol><symbol viewBox="0 0 16 16" id="chevrondown16" xmlns="http://www.w3.org/2000/svg"><path fill-rule="evenodd" d="M3.293 5.793a1 1 0 011.414 0L8 9.086l3.293-3.293a1 1 0 111.414 1.414l-4 4a1 1 0 01-1.414 0l-4-4a1 1 0 010-1.414z" clip-rule="evenodd"/></symbol><symbol viewBox="0 0 24 24" id="chevrondown24" xmlns="http://www.w3.org/2000/svg"><path fill-rule="evenodd" d="M5.116 8.866a1.25 1.25 0 011.768 0L12 13.982l5.116-5.116a1.25 1.25 0 011.768 1.768l-6 6a1.25 1.25 0 01-1.768 0l-6-6a1.25 1.25 0 010-1.768z" clip-rule="evenodd"/></symbol><symbol viewBox="0 0 16 16" id="chevronright16" xmlns="http://www.w3.org/2000/svg"><path fill-rule="evenodd" d="M5.293 3.293a1 1 0 011.414 0l4 4a1 1 0 010 1.414l-4 4a1 1 0 01-1.414-1.414L8.586 8 5.293 4.707a1 1 0 010-1.414z" clip-rule="evenodd"/></symbol><symbol viewBox="0 0 24 24" id="chevronright24" xmlns="http://www.w3.org/2000/svg"><path fill-rule="evenodd" d="M8.366 18.884a1.25 1.25 0 010-1.768L13.482 12 8.366 6.884a1.25 1.25 0 111.768-1.768l6 6a1.25 1.25 0 010 1.768l-6 6a1.25 1.25 0 01-1.768 0z" clip-rule="evenodd"/></symbol><symbol viewBox="0 0 16 16" id="circle16" xmlns="http://www.w3.org/2000/svg"><path d="M15 8a7 7 0 11-7-7"/></symbol><symbol viewBox="0 0 24 24" id="circle24" xmlns="http://www.w3.org/2000/svg"><path d="M22.75 12A10.75 10.75 0 1112 1.25"/></symbol><symbol viewBox="0 0 32 32" id="circle32" xmlns="http://www.w3.org/2000/svg"><path d="M30.5 16A14.5 14.5 0 1116 1.5"/></symbol><symbol viewBox="0 0 32 32" id="clock32" xmlns="http://www.w3.org/2000/svg"><path fill-rule="evenodd" d="M16 26c5.523 0 10-4.477 10-10S21.523 6 16 6 6 10.477 6 16s4.477 10 10 10zm1-15a1 1 0 10-2 0v5.535l3.445 2.297a1 1 0 001.11-1.664L17 15.465V11z" clip-rule="evenodd"/></symbol><symbol fill="none" viewBox="0 0 16 16" id="close16" xmlns="http://www.w3.org/2000/svg"><path d="M4 4l8 8m0-8l-8 8"/></symbol><symbol fill="none" viewBox="0 0 24 24" id="close24" xmlns="http://www.w3.org/2000/svg"><path d="M7 7l10 10m0-10L7 17"/></symbol><symbol fill="none" viewBox="0 0 32 32" id="close32" xmlns="http://www.w3.org/2000/svg"><path d="M8 8l16 16m0-16L8 24"/></symbol><symbol viewBox="0 0 32 32" id="collapse32" xmlns="http://www.w3.org/2000/svg"><path d="M9 10h14V8H9v2zm11.707 6.707a1 1 0 01-1.414 0L17 14.414V24h-2v-9.586l-2.293 2.293a1 1 0 01-1.414-1.414L16 10.586l4.707 4.707a1 1 0 010 1.414z"/></symbol><symbol viewBox="0 0 32 32" id="contacts32" xmlns="http://www.w3.org/2000/svg"><path d="M21 14a5 5 0 11-10 0 5 5 0 0110 0z"/><path fill-rule="evenodd" d="M15.382 27.984C9.042 27.663 4 22.42 4 16 4 9.373 9.373 4 16 4s12 5.373 12 12a11.97 11.97 0 01-3.975 8.922A11.955 11.955 0 0116 28m-7.51-3.962A8.992 8.992 0 0116 20a8.992 8.992 0 017.51 4.038A10.97 10.97 0 0027 16c0-6.075-4.925-11-11-11S5 9.925 5 16a10.97 10.97 0 003.49 8.038zm6.892 3.946c.205.01.411.016.618.016l-.618-.016z" clip-rule="evenodd"/></symbol><symbol viewBox="0 0 16 16" id="delete16" xmlns="http://www.w3.org/2000/svg"><path d="M4 5h8v7a2 2 0 01-2 2H6a2 2 0 01-2-2V5zM3 3h10v1H3V3zm3-1h4v1H6V2z"/></symbol><symbol viewBox="0 0 24 24" id="delete24" xmlns="http://www.w3.org/2000/svg"><path d="M7 7h10v10a2 2 0 01-2 2H9a2 2 0 01-2-2V7zM6 5h12v1H6V5zm4-1h4v1h-4V4z"/></symbol><symbol viewBox="0 0 32 32" id="delete32" xmlns="http://www.w3.org/2000/svg"><path d="M10 10h12v12a2 2 0 01-2 2h-8a2 2 0 01-2-2V10zM9 8h14v1H9V8zm4-1h6v1h-6V7z"/></symbol><symbol viewBox="0 0 24 16" id="discord24" xmlns="http://www.w3.org/2000/svg"><path d="M15.017.198c.167.47 2.793.574 5.252 2.506-2.328-1.41-5.923-.627-7.692-.627L12 3.26h-.15V.842h-.502a18.71 18.71 0 00-7.655 1.914C6.17.79 8.796.686 8.983.216c-.522-.784-6.128.887-6.5 2.557a21.29 21.29 0 00-2.477 10.44 7.819 7.819 0 002.85 2.1 8.354 8.354 0 003.556.684A9.184 9.184 0 007.548 14.5a11.49 11.49 0 01-3.5-2.644 12.572 12.572 0 007.281 1.74h1.192a12.731 12.731 0 007.32-1.74 10.13 10.13 0 01-3.39 2.4c.297.57.68 1.098 1.136 1.567a8.262 8.262 0 003.553-.65 7.734 7.734 0 002.854-2.082 21.015 21.015 0 00-2.496-10.44c-.373-1.548-5.979-3.236-6.481-2.453zm-6.724 11.17a2.197 2.197 0 01-.87-.142 2.077 2.077 0 01-.727-.468 1.91 1.91 0 01-.45-.71 1.812 1.812 0 01-.094-.82c-.03-.276.004-.554.1-.817.095-.263.249-.503.452-.706.202-.202.45-.362.723-.469.274-.106.57-.157.866-.148 1.341 0 1.993 1.462 1.993 2.14 0 .679-.652 2.14-1.993 2.14zm7.301 0c-1.36 0-1.993-1.583-1.993-2.14 0-.556.633-2.14 1.993-2.14.297-.009.592.042.866.148.274.107.521.267.724.47.203.202.357.442.452.705.095.263.13.541.1.817.032.277 0 .557-.094.82a1.91 1.91 0 01-.451.71 2.078 2.078 0 01-.727.468 2.197 2.197 0 01-.87.142z"/></symbol><symbol viewBox="0 0 16 16" id="edit16" xmlns="http://www.w3.org/2000/svg"><path d="M11.293 2.707a1 1 0 011.414 0l.586.586a1 1 0 010 1.414L6 12l-2-2 7.293-7.293zM3.5 10.5l2 2L3 13l.5-2.5z"/></symbol><symbol viewBox="0 0 24 24" id="edit24" xmlns="http://www.w3.org/2000/svg"><path d="M15.597 6.069a1 1 0 011.414 0l.92.919a1 1 0 010 1.414l-9.266 9.265-2.333-2.333 9.265-9.265zM5.75 15.917l2.333 2.333-2.917.584.583-2.917z"/></symbol><symbol viewBox="0 0 32 32" id="edit32" xmlns="http://www.w3.org/2000/svg"><path d="M20.435 8.707a1 1 0 011.414 0l1.414 1.414a1 1 0 010 1.415L12.656 22.142l-2.828-2.828L20.435 8.707zM9.121 20.02l2.829 2.83-3.536.706.707-3.535z"/></symbol><symbol viewBox="0 0 16 16" id="error16" xmlns="http://www.w3.org/2000/svg"><path fill-rule="evenodd" d="M7.143 2.486l-5.999 9.998A1 1 0 002.002 14h11.997a1 1 0 00.857-1.515L8.858 2.486a1 1 0 00-1.715 0zm.628 6.58a.5.5 0 01-.498-.46l-.264-3.234a.5.5 0 01.499-.54h.985a.5.5 0 01.499.54l-.264 3.234a.5.5 0 01-.498.46h-.46zm-.806 2.236c0-.595.464-1.078 1.036-1.078.571 0 1.035.482 1.035 1.078 0 .596-.464 1.079-1.035 1.079-.572 0-1.036-.483-1.036-1.079z" clip-rule="evenodd"/></symbol><symbol viewBox="0 0 24 24" id="error24" xmlns="http://www.w3.org/2000/svg"><path fill-rule="evenodd" d="M10.923 4.832L3.108 18.116A1.25 1.25 0 004.185 20h15.63a1.25 1.25 0 001.077-1.884L13.077 4.832a1.25 1.25 0 00-2.154 0zm.664 9.152a.5.5 0 01-.5-.473l-.215-4.014a.5.5 0 01.5-.527h1.094a.5.5 0 01.499.527l-.215 4.014a.5.5 0 01-.5.473h-.663zm-.877 2.507a1.209 1.209 0 112.417 0 1.209 1.209 0 01-2.417 0z" clip-rule="evenodd"/></symbol><symbol viewBox="0 0 32 32" id="error32" xmlns="http://www.w3.org/2000/svg"><path fill-rule="evenodd" d="M14.704 5.221L3.316 24.744A1.5 1.5 0 004.612 27h22.776a1.5 1.5 0 001.296-2.256L17.296 5.221a1.5 1.5 0 00-2.592 0zM15.35 19a.5.5 0 01-.5-.473l-.32-6a.5.5 0 01.498-.527h1.946a.5.5 0 01.499.527l-.322 6a.5.5 0 01-.499.473H15.35zm-1.037 3.5a1.687 1.687 0 113.375 0 1.687 1.687 0 01-3.375 0z" clip-rule="evenodd"/></symbol><symbol viewBox="0 0 24 24" id="hide24" xmlns="http://www.w3.org/2000/svg"><path fill-rule="evenodd" d="M16.743 17.743L20 21l1.414-1.414-2.967-2.968C20.69 14.862 22 12.668 22 12c0-1.167-4-7-10-7-1.541 0-2.95.385-4.194.977L4.414 2.586 3 4l3.027 3.027C3.495 8.83 2 11.287 2 12c0 1.167 4 7 10 7 1.773 0 3.371-.51 4.743-1.257zm.278-2.55c.308-.232.601-.477.878-.73a10.954 10.954 0 001.712-1.978c.126-.19.221-.353.29-.485a5.894 5.894 0 00-.29-.485A10.954 10.954 0 0017.9 9.537C16.373 8.139 14.334 7 12 7a7.54 7.54 0 00-2.671.5l.908.908a4 4 0 015.354 5.355l1.43 1.43zm-2.737.091l.97.97c-.992.46-2.086.746-3.254.746-2.334 0-4.373-1.139-5.899-2.537a10.955 10.955 0 01-1.713-1.978 5.914 5.914 0 01-.29-.485c.07-.132.165-.295.29-.485a11.01 11.01 0 011.713-1.978 11.25 11.25 0 011.364-1.072l1.25 1.25a4 4 0 005.568 5.568zm-10.32-3.58l.005.017-.005-.018zm.005.575l-.005.018.005-.018zm16.067.018l-.005-.018a.193.193 0 01.005.018zm-.005-.576l.005-.018-.005.018z" clip-rule="evenodd"/></symbol><symbol viewBox="0 0 16 16" id="information16" xmlns="http://www.w3.org/2000/svg"><path fill-rule="evenodd" d="M8 13A5 5 0 108 3a5 5 0 000 10zm.75-7a.75.75 0 11-1.5 0 .75.75 0 011.5 0zM8.5 7.5V11h-1V7.5h1z" clip-rule="evenodd"/></symbol><symbol viewBox="0 0 24 24" id="information24" xmlns="http://www.w3.org/2000/svg"><path fill-rule="evenodd" d="M12 21a9 9 0 100-18 9 9 0 000 18zm1.266-12.516a1.266 1.266 0 11-2.532 0 1.266 1.266 0 012.532 0zm-2.11 8.016v-5.063h1.688V16.5h-1.688z" clip-rule="evenodd"/></symbol><symbol viewBox="0 0 32 32" id="information32" xmlns="http://www.w3.org/2000/svg"><path fill-rule="evenodd" d="M16 28c6.627 0 12-5.373 12-12S22.627 4 16 4 4 9.373 4 16s5.373 12 12 12zm1.5-17.7a1.5 1.5 0 11-3 0 1.5 1.5 0 013 0zm-.3 3.3V22h-2.4v-8.4h2.4z" clip-rule="evenodd"/></symbol><symbol viewBox="0 0 24 24" id="lock24" xmlns="http://www.w3.org/2000/svg"><path fill-rule="evenodd" d="M17 11a2 2 0 012 2v6a2 2 0 01-2 2H7a2 2 0 01-2-2v-6a2 2 0 012-2V8a5 5 0 0110 0v3zm-8 0h6V8a3 3 0 10-6 0v3z" clip-rule="evenodd"/></symbol><symbol viewBox="0 0 32 32" id="lock32" xmlns="http://www.w3.org/2000/svg"><path fill-rule="evenodd" d="M10 14v-3a6 6 0 0112 0v3a2 2 0 012 2v8a2 2 0 01-2 2H10a2 2 0 01-2-2v-8a2 2 0 012-2zm9.5-3v3h-7v-3a3.5 3.5 0 117 0z" clip-rule="evenodd"/></symbol><symbol viewBox="0 0 32 32" id="menu32" xmlns="http://www.w3.org/2000/svg"><path d="M6 9h20v2H6V9zm0 6h20v2H6v-2zm0 6h20v2H6v-2z"/></symbol><symbol viewBox="0 0 32 32" id="networks32" xmlns="http://www.w3.org/2000/svg"><path d="M21 16a5 5 0 11-10 0 5 5 0 0110 0z"/><path d="M14 6a2.99 2.99 0 01-.84 2.083l3.555 7.112 5.292-5.953a3 3 0 11.86.537l-5.817 6.545.033.218 7.464 3.731a3 3 0 11-.432.902l-6.845-3.422.962 6.256a3 3 0 11-.998.09l-1.06-6.894-.621-.31L16 16l-3.658-7.316A3 3 0 1114 6z"/><path d="M8.824 19.986L16 16l-.486-.874-7.18 3.989a3 3 0 10.49.871z"/></symbol><symbol viewBox="0 0 16 16" id="overflow16" xmlns="http://www.w3.org/2000/svg"><path d="M9 4a1 1 0 11-2 0 1 1 0 012 0zm0 4a1 1 0 11-2 0 1 1 0 012 0zm0 4a1 1 0 11-2 0 1 1 0 012 0z"/></symbol><symbol viewBox="0 0 24 24" id="overflow24" xmlns="http://www.w3.org/2000/svg"><path d="M13.5 6.5a1.5 1.5 0 11-3 0 1.5 1.5 0 013 0zm0 5.5a1.5 1.5 0 11-3 0 1.5 1.5 0 013 0zm0 5.5a1.5 1.5 0 11-3 0 1.5 1.5 0 013 0z"/></symbol><symbol viewBox="0 0 32 32" id="overflow32" xmlns="http://www.w3.org/2000/svg"><path d="M18 10a2 2 0 11-4 0 2 2 0 014 0zm0 6a2 2 0 11-4 0 2 2 0 014 0zm0 6a2 2 0 11-4 0 2 2 0 014 0z"/></symbol><symbol viewBox="0 0 16 16" id="paper16" xmlns="http://www.w3.org/2000/svg"><path d="M11.59 5.78L9.47 3.66a.55.55 0 00-.38-.16H5a.76.76 0 00-.76.77v7.46a.76.76 0 00.76.77h6a.76.76 0 00.76-.77V6.16a.55.55 0 00-.17-.38zm-1.34 5.33h-4.5v-1h4.5v1zm0-1.68h-4.5v-1h4.5v1zM9 6.25V4.08l2.19 2.17H9z"/></symbol><symbol viewBox="0 0 24 24" id="paper24" xmlns="http://www.w3.org/2000/svg"><path d="M17.39 8.67l-3.18-3.18a.83.83 0 00-.58-.24H7.52A1.15 1.15 0 006.37 6.4v11.2a1.15 1.15 0 001.15 1.15h9a1.15 1.15 0 001.15-1.15V9.25a.83.83 0 00-.28-.58zm-2 8H8.63v-1.5h6.74l.02 1.5zm0-2.52H8.63v-1.5h6.74l.02 1.5zm-1.9-4.76V6.12l3.29 3.26-3.29.01z"/></symbol><symbol viewBox="0 0 32 32" id="paper32" xmlns="http://www.w3.org/2000/svg"><path d="M23.18 11.56L19 7.32a1.09 1.09 0 00-.82-.32H10a1.53 1.53 0 00-1.5 1.53v14.94A1.53 1.53 0 0010 25h12a1.53 1.53 0 001.53-1.53V12.33a1.061 1.061 0 00-.35-.77zm-2.69 10.65h-9v-2h9v2zm0-3.36h-9v-2h9v2zM18 12.5V8.15l4.37 4.35H18z"/></symbol><symbol viewBox="0 0 16 16" id="people16" xmlns="http://www.w3.org/2000/svg"><path fill-rule="evenodd" clip-rule="evenodd" d="M6.553 8.7a2.945 2.945 0 110-5.889 2.945 2.945 0 010 5.89zm7.948 3.93h-2.425a5.574 5.574 0 00-1.927-3.454 3.902 3.902 0 014.352 3.455zm-6.11-3.383a4.595 4.595 0 012.672 3.384c.02.106.035.214.046.323H2a4.585 4.585 0 012.716-3.706 3.928 3.928 0 001.837.453c.663 0 1.289-.164 1.838-.454zm2.107-3.49c0 1.124-.472 2.14-1.227 2.858a2.508 2.508 0 10.837-4.57c.25.517.39 1.098.39 1.711z"/></symbol><symbol viewBox="0 0 24 24" id="people24" xmlns="http://www.w3.org/2000/svg"><path fill-rule="evenodd" clip-rule="evenodd" d="M9.829 13.051a4.417 4.417 0 110-8.834 4.417 4.417 0 010 8.834zm11.923 5.895h-3.638a8.362 8.362 0 00-2.89-5.182 5.853 5.853 0 016.529 5.183zM7.075 13.872c.823.434 1.76.68 2.755.68.995 0 1.933-.247 2.757-.68a6.877 6.877 0 014.077 5.56H3a6.877 6.877 0 014.075-5.56zm8.67-5.238a5.9 5.9 0 01-1.84 4.289 3.762 3.762 0 101.255-6.857c.376.777.586 1.648.586 2.568z"/></symbol><symbol viewBox="0 0 32 32" id="people32" xmlns="http://www.w3.org/2000/svg"><path fill-rule="evenodd" clip-rule="evenodd" d="M13.107 17.402a5.89 5.89 0 110-11.78 5.89 5.89 0 010 11.78zm15.895 7.86h-4.85a11.15 11.15 0 00-3.854-6.91 7.804 7.804 0 018.704 6.91zM9.434 18.496a7.856 7.856 0 003.673.906 7.854 7.854 0 003.675-.907 9.169 9.169 0 015.437 7.414H4a9.169 9.169 0 015.434-7.413zm11.562-6.984c0 2.25-.943 4.281-2.454 5.718a5.016 5.016 0 101.674-9.142c.5 1.036.78 2.197.78 3.424z"/></symbol><symbol viewBox="0 0 16 16" id="placeholder16" xmlns="http://www.w3.org/2000/svg"><path d="M8 2l.679 5.321L14 8l-5.321.679L8 14l-.679-5.321L2 8l5.321-.679L8 2z"/></symbol><symbol viewBox="0 0 24 24" id="placeholder24" xmlns="http://www.w3.org/2000/svg"><path d="M12 4l.905 7.095L20 12l-7.095.905L12 20l-.905-7.095L4 12l7.095-.905L12 4z"/></symbol><symbol viewBox="0 0 32 32" id="placeholder32" xmlns="http://www.w3.org/2000/svg"><path d="M16 4l1.358 10.642L28 16l-10.642 1.358L16 28l-1.358-10.642L4 16l10.642-1.358L16 4z"/></symbol><symbol viewBox="0 0 32 32" id="plus32" xmlns="http://www.w3.org/2000/svg"><path d="M15 8a1 1 0 112 0v16a1 1 0 11-2 0V8z"/><path d="M7 16a1 1 0 011-1h16a1 1 0 110 2H8a1 1 0 01-1-1z"/></symbol><symbol viewBox="0 0 32 32" id="protected32" xmlns="http://www.w3.org/2000/svg"><path fill-rule="evenodd" clip-rule="evenodd" d="M5 9.647S5 22.353 15.8 28C26.6 22.353 26.6 9.647 26.6 9.647S21.2 8.235 15.8 4C10.4 8.235 5 9.647 5 9.647zm15.548 4.865a.75.75 0 10-1.096-1.024l-4.785 5.127-2.119-2.27a.75.75 0 10-1.096 1.024l2.666 2.857a.75.75 0 001.097 0l5.333-5.714z"/></symbol><symbol viewBox="0 0 32 32" id="qrcode32" xmlns="http://www.w3.org/2000/svg"><path d="M7 10a3 3 0 013-3h2a1 1 0 110 2h-2a1 1 0 00-1 1v2a1 1 0 11-2 0v-2zm15-3a3 3 0 013 3v2a1 1 0 11-2 0v-2a1 1 0 00-1-1h-2a1 1 0 110-2h2zm0 18a3 3 0 003-3v-2a1 1 0 10-2 0v2a1 1 0 01-1 1h-2a1 1 0 100 2h2zm-12 0a3 3 0 01-3-3v-2a1 1 0 112 0v2a1 1 0 001 1h2a1 1 0 110 2h-2z"/><path fill-rule="evenodd" d="M11 11h4v4h-4v-4zm1 1h2v2h-2v-2zm-1 4h2v1h1v-1h1v5h-4v-5zm1 2h2v2h-2v-2z" clip-rule="evenodd"/><path d="M19 16h-3v3h2v-2h1v-1zm-2-5h4v4h-4v-4zm4 5h-1v1h1v-1zm-1 3h1v2h-2v-3h1v1zm-2 2v-1h-2v1h2z"/></symbol><symbol viewBox="0 0 32 32" id="receive32" xmlns="http://www.w3.org/2000/svg"><path d="M16 22c3.314 0 6-1.343 6-3s-2.686-3-6-3-6 1.343-6 3 2.686 3 6 3z"/><path d="M10 20.5V22c0 1.657 2.686 3 6 3s6-1.343 6-3v-1.5c0 1.657-2.686 3-6 3s-6-1.343-6-3z"/><path d="M10 23.5V25c0 1.657 2.686 3 6 3s6-1.343 6-3v-1.5c0 1.657-2.686 3-6 3s-6-1.343-6-3zM20.707 8.707a1 1 0 00-1.414-1.414L17 9.586V3a1 1 0 10-2 0v6.586l-2.293-2.293a1 1 0 10-1.414 1.414L16 13.414l4.707-4.707z"/></symbol><symbol viewBox="0 0 32 32" id="refresh32" xmlns="http://www.w3.org/2000/svg"><path d="M18 9.97a1 1 0 000 2v-2zm4.97 1v1h1v-1h-1zm1-4.97a1 1 0 00-2 0h2zm-8.22 18.997l-.028 1 .028-1zm-5.374-1.972l.625-.78-.625.78zM7.707 12.504l.921.388-.921-.388zm3.786-4.294l.5.865-.5-.865zm5.61-1.142l-.123.992.122-.992zM18 11.97h4.97v-2H18v2zm5.97-1V6h-2v4.97h2zm-.337 7.425a8 8 0 01-2.988 4.119l1.16 1.628a10 10 0 003.736-5.148l-1.908-.599zm-2.988 4.119a8 8 0 01-4.868 1.483l-.056 2a10 10 0 006.085-1.855l-1.162-1.628zm-4.868 1.483A8 8 0 0111 22.245l-1.25 1.56a10 10 0 005.971 2.191l.056-2zM11 22.245a8 8 0 01-2.755-4.279l-1.938.492a10 10 0 003.443 5.348L11 22.245zm-2.755-4.279a8 8 0 01.383-5.074l-1.843-.777a10 10 0 00-.478 6.343l1.938-.492zm.383-5.074a8 8 0 013.366-3.817l-1.002-1.73a10 10 0 00-4.207 4.77l1.843.777zm3.366-3.817A8 8 0 0116.98 8.06l.245-1.985a10 10 0 00-6.233 1.27l1.002 1.73zM16.98 8.06a8 8 0 014.59 2.197l1.392-1.435a10 10 0 00-5.737-2.747L16.98 8.06z"/></symbol><symbol viewBox="0 0 16 16" id="search16" xmlns="http://www.w3.org/2000/svg"><path fill-rule="evenodd" d="M11 11a5 5 0 111.052-1.07l1.478 1.479a.75.75 0 01-1.06 1.06L11 11zm.5-4a3.5 3.5 0 11-7 0 3.5 3.5 0 017 0z" clip-rule="evenodd"/></symbol><symbol viewBox="0 0 24 24" id="search24" xmlns="http://www.w3.org/2000/svg"><path fill-rule="evenodd" d="M17.135 17.135a8 8 0 111.362-1.466l3.21 3.21a1 1 0 01-1.414 1.414l-3.158-3.158zM18 11a6 6 0 11-12 0 6 6 0 0112 0z" clip-rule="evenodd"/></symbol><symbol viewBox="0 0 32 32" id="search32" xmlns="http://www.w3.org/2000/svg"><path fill-rule="evenodd" d="M22.714 24.714A10.952 10.952 0 0116 27C9.925 27 5 22.075 5 16S9.925 5 16 5s11 4.925 11 11a10.95 10.95 0 01-2.181 6.576l4.241 4.242a1.5 1.5 0 11-2.12 2.121l-4.226-4.225zm-.79-2.62a8.5 8.5 0 11.27-.275 1.534 1.534 0 00-.27.276z" clip-rule="evenodd"/></symbol><symbol viewBox="0 0 32 32" id="send32" xmlns="http://www.w3.org/2000/svg"><path d="M16 24c3.314 0 6-1.343 6-3s-2.686-3-6-3-6 1.343-6 3 2.686 3 6 3z"/><path d="M10 24v-1.5c0 1.657 2.686 3 6 3s6-1.343 6-3V24c0 1.657-2.686 3-6 3s-6-1.343-6-3zm3.379-18.328a1 1 0 100 2h3.242l-4.656 4.656a1 1 0 001.414 1.415l4.657-4.657v3.242a1 1 0 002 0V5.672h-6.657z"/></symbol><symbol viewBox="0 0 24 24" id="show24" xmlns="http://www.w3.org/2000/svg"><path d="M12 18c-2.667 0-4.937-1.299-6.574-2.8a11.95 11.95 0 01-1.872-2.164 5.894 5.894 0 01-.457-.808A1.9 1.9 0 013.009 12a1.82 1.82 0 01.088-.228c.094-.21.244-.486.457-.808A11.952 11.952 0 015.426 8.8C7.063 7.299 9.333 6 12 6s4.937 1.299 6.574 2.8a11.951 11.951 0 011.872 2.164c.213.322.363.598.457.808.052.116.077.19.088.228a1.881 1.881 0 01-.088.228c-.093.21-.244.486-.457.808a11.95 11.95 0 01-1.872 2.164C16.937 16.702 14.667 18 12 18zm0-3a3 3 0 100-6 3 3 0 000 6z"/></symbol><symbol viewBox="0 0 32 32" id="stake32" xmlns="http://www.w3.org/2000/svg"><path d="M8 19c3.314 0 6-1.343 6-3s-2.686-3-6-3-6 1.343-6 3 2.686 3 6 3z"/><path d="M2 17.5V19c0 1.657 2.686 3 6 3s6-1.343 6-3v-1.5c0 1.657-2.686 3-6 3s-6-1.343-6-3z"/><path d="M2 20.5V22c0 1.657 2.686 3 6 3s6-1.343 6-3v-1.5c0 1.657-2.686 3-6 3s-6-1.343-6-3zM22 13c3.314 0 6-1.343 6-3s-2.686-3-6-3-6 1.343-6 3 2.686 3 6 3z"/><path d="M16 11.5V13c0 1.657 2.686 3 6 3s6-1.343 6-3v-1.5c0 1.657-2.686 3-6 3s-6-1.343-6-3z"/><path d="M16 14.5V16c0 1.657 2.686 3 6 3s6-1.343 6-3v-1.5c0 1.657-2.686 3-6 3s-6-1.343-6-3z"/><path d="M16 17.5V19c0 1.657 2.686 3 6 3s6-1.343 6-3v-1.5c0 1.657-2.686 3-6 3s-6-1.343-6-3z"/><path d="M16 22v-1.5c0 1.657 2.686 3 6 3s6-1.343 6-3V22c0 1.657-2.686 3-6 3s-6-1.343-6-3z"/></symbol><symbol viewBox="0 0 21 18" id="telegram24" xmlns="http://www.w3.org/2000/svg"><path d="M.972 7.26L19.602.088c.853-.31 1.552.202 1.334 1.552l-3.104 14.935c-.233 1.056-.87 1.32-1.755.823l-4.89-3.602-2.329 2.236a1.165 1.165 0 01-.962.48l.341-4.92 8.943-8.073c.388-.342 0-.544-.606-.202L5.52 10.287.754 8.736C-.27 8.409-.3 7.695.972 7.183v.077z"/></symbol><symbol viewBox="0 0 24 24" id="unlock24" xmlns="http://www.w3.org/2000/svg"><path d="M5 13a2 2 0 012-2h10a2 2 0 012 2v6a2 2 0 01-2 2H7a2 2 0 01-2-2v-6z"/><path d="M15 8v5a3 3 0 01-4 2.83v2.07a5 5 0 006-4.9V8A5 5 0 007 8v1h2V8a3 3 0 116 0z"/></symbol><symbol viewBox="0 0 32 32" id="unlock32" xmlns="http://www.w3.org/2000/svg"><path d="M8 16a2 2 0 012-2h12a2 2 0 012 2v8a2 2 0 01-2 2H10a2 2 0 01-2-2v-8z"/><path d="M19.5 11v7a3.502 3.502 0 01-2.5 3.355v2.562A6.002 6.002 0 0022 18v-7a6 6 0 00-12 0h2.5a3.5 3.5 0 117 0z"/></symbol><symbol viewBox="0 0 16 16" id="user16" xmlns="http://www.w3.org/2000/svg"><path fill-rule="evenodd" clip-rule="evenodd" d="M7.782 8.73a3.05 3.05 0 110-6.1 3.05 3.05 0 010 6.1zm0 1c-.67 0-1.303-.163-1.86-.452a4.748 4.748 0 00-2.856 3.857H12.5a4.748 4.748 0 00-2.857-3.857 4.032 4.032 0 01-1.86.452z"/></symbol><symbol viewBox="0 0 24 24" id="user24" xmlns="http://www.w3.org/2000/svg"><path fill-rule="evenodd" clip-rule="evenodd" d="M11.674 13.095a4.575 4.575 0 110-9.149 4.575 4.575 0 010 9.149zm0 1.5a6.048 6.048 0 01-2.79-.677A7.122 7.122 0 004.6 19.702h14.15a7.122 7.122 0 00-4.285-5.785 6.048 6.048 0 01-2.791.678z"/></symbol><symbol viewBox="0 0 32 32" id="user32" xmlns="http://www.w3.org/2000/svg"><path fill-rule="evenodd" clip-rule="evenodd" d="M15.565 17.46a6.1 6.1 0 110-12.199 6.1 6.1 0 010 12.199zm0 2a8.065 8.065 0 01-3.72-.903 9.496 9.496 0 00-5.712 7.713H25a9.496 9.496 0 00-5.714-7.714 8.065 8.065 0 01-3.722.904z"/></symbol><symbol viewBox="0 0 32 32" id="wallet32" xmlns="http://www.w3.org/2000/svg"><path fill-rule="evenodd" clip-rule="evenodd" d="M8 8a2 2 0 00-2 2v12a2 2 0 002 2h16a2 2 0 002-2v-3h-5a1 1 0 01-1-1v-4a1 1 0 011-1h5v-3a2 2 0 00-2-2H8z"/><path d="M21 15c0-.552.373-1 .833-1H26v4h-4.167c-.46 0-.833-.448-.833-1v-2z"/></symbol><symbol viewBox="0 0 32 32" id="wallets32" xmlns="http://www.w3.org/2000/svg"><path fill-rule="evenodd" d="M5 11a2 2 0 00-2 2v12a2 2 0 002 2h16a2 2 0 002-2v-3h-5a1 1 0 01-1-1v-4a1 1 0 011-1h5v-3a2 2 0 00-2-2H5z" clip-rule="evenodd"/><path d="M24 24a2 2 0 002-2V10a2 2 0 00-2-2H8a2 2 0 00-2 2h16a2 2 0 012 2v11c0 .364-.097.706-.268 1H24z"/><path d="M18 18c0-.552.373-1 .833-1H23v4h-4.167c-.46 0-.833-.448-.833-1v-2z"/><path d="M27 21a2 2 0 002-2V7a2 2 0 00-2-2H11a2 2 0 00-2 2h16a2 2 0 012 2v11c0 .364-.097.706-.268 1H27z"/></symbol></svg>